<svg height="511pt" viewBox="-44 0 511 511.99763" width="511pt" xmlns="http://www.w3.org/2000/svg"><g fill="#f7b36f"><path d="m271.15625 171.855469c-24.378906.003906-46.339844-8.792969-60.25-24.132813-6.851562-7.558594-11.921875-16.796875-16.824219-25.730468l-.363281-.664063c-.914062-1.671875-1.820312-3.332031-2.753906-4.988281-6.617188-11.792969-15.925782-26.695313-29.324219-37.398438-11.214844-8.945312-24.273437-13.875-36.761719-13.875-1.59375 0-3.195312.082032-4.757812.242188l-2.582032.265625.402344-2.5625c.09375-.597657.167969-1.195313.222656-1.804688.625-7.160156-2.082031-14.863281-7.429687-21.117187-5.933594-6.957032-14.6875-11.109375-23.425781-11.109375-3.902344 0-7.507813.828125-10.726563 2.464843-6.039062 3.074219-10.324219 9.558594-11.179687 16.925782-.730469 6.40625 1.34375 12.179687 5.699218 15.839844 2.539063 2.136718 6 3.410156 9.261719 3.410156 1.949219 0 4.777344-.460938 7.164063-2.667969 2.515625-2.335937 3.277344-6.304687 1.894531-9.871094-1.164063-3-3.660156-4.878906-6.519531-4.902343-1.132813 0-2.042969.90625-2.054688 2.019531-.003906 1.109375.902344 2.03125 2.019532 2.039062 1.433593 0 2.382812 1.222657 2.785156 2.363281.636718 1.632813.550781 4.035157-.886719 5.367188-1.125 1.039062-2.660156 1.59375-4.4375 1.59375-2.277344 0-4.808594-.941406-6.605469-2.453125-3.300781-2.773437-4.859375-7.25-4.28125-12.277344.6875-5.9375 4.210938-11.339843 8.980469-13.765625 2.679687-1.359375 5.652344-2.050781 8.84375-2.050781 7.355469 0 15.355469 3.808594 20.386719 9.707031 4.636718 5.425782 6.996094 12.039063 6.46875 18.140625-.726563 8.355469-7.003906 16.585938-16.789063 22.015625-7.457031 4.148438-15.730469 6.339844-23.921875 6.339844-4.355468 0-8.605468-.621094-12.632812-1.84375-12.214844-3.707031-22.34375-13.542969-25.804688-25.058594-6.265625-20.929687 9.734375-43.40625 28.609375-51.273437 7.9375-3.304688 16.8125-4.980469 26.375-4.980469 11.527344 0 24.292969 2.433594 37.9375 7.230469 20.589844 7.234375 48.585938 21.546875 65.035157 48.648437 3.769531 6.226563 6.851562 13.050782 9.835937 19.648438l.128906.285156c3.839844 8.542969 7.808594 17.367188 13.371094 25.230469 15.160156 21.425781 43.082031 34.734375 72.867187 34.734375 5.394532 0 10.828126-.441406 16.144532-1.3125 12.054687-1.976563 23.660156-5.910156 34.882812-9.710938 6.757813-2.289062 13.746094-4.65625 20.726563-6.558594 10.128906-2.761718 19.574219-4.160156 28.070312-4.160156 9.023438 0 17.167969 1.578125 24.203125 4.691406l.929688.414063.214844.992187c.070312.320313.25.777344.707031 1.144532 1.355469 1.074218 2.078125 2.730468 2.078125 4.789062 0 2.730469-1.316406 5.539063-3.355469 7.160156-2.425781 1.914063-5.691406 2.886719-9.703125 2.886719-1.6875 0-3.507812-.175781-5.398438-.519531-2.0625-.371094-4.066406-.886719-6.191406-1.429688l-.304687-.078124c-3.503907-.902344-7.09375-1.828126-10.804688-2.105469-.808593-.058594-1.632812-.089844-2.449219-.089844-11.1875 0-21.824218 5.652344-31.207031 10.636719l-1.777343.945312c-26.390626 13.96875-48.394532 21.015625-69.246094 22.171875-1.828125.097657-3.675782.148438-5.496094.148438zm-.460938-18.027344c-.925781 0-1.734374.617187-1.964843 1.503906-.285157 1.089844.363281 2.207031 1.449219 2.496094 2.019531.53125 4.132812.800781 6.277343.800781 2.597657 0 5.136719-.390625 7.546875-1.164062 1.066406-.34375 1.660156-1.488282 1.316406-2.554688-.269531-.84375-1.046874-1.414062-1.933593-1.414062-.210938 0-.417969.035156-.621094.097656-2.019531.648438-4.140625.976562-6.304687.976562-1.792969 0-3.558594-.226562-5.257813-.675781-.160156-.042969-.335937-.066406-.507813-.066406zm30.285157-1.488281c-1.019531 0-1.882813.765625-2.007813 1.78125-.066406.539062.082032 1.070312.414063 1.5.335937.425781.816406.699218 1.351562.761718.578125.078126 1.171875.117188 1.789063.117188 2.355468 0 4.683594-.542969 6.734375-1.570312.496093-.242188.855469-.660157 1.03125-1.171876.171875-.511718.132812-1.0625-.105469-1.546874-.347656-.699219-1.042969-1.132813-1.820312-1.132813-.3125 0-.617188.070313-.898438.210937-1.519531.75-3.21875 1.144532-4.921875 1.144532-.441406 0-.878906-.023438-1.308594-.078125-.089843-.011719-.171875-.015625-.257812-.015625zm-62.546875-6.210938c-.800782 0-1.527344.464844-1.855469 1.1875-.464844 1.019532-.011719 2.226563 1.007813 2.691406 3.90625 1.777344 8.046874 3.171876 12.300781 4.152344.140625.03125.292969.046875.449219.046875.9375 0 1.769531-.667969 1.980468-1.585937.125-.527344.03125-1.070313-.253906-1.527344-.289062-.457031-.738281-.773438-1.265625-.894531-3.972656-.910157-7.847656-2.21875-11.527344-3.886719-.265625-.121094-.546875-.183594-.835937-.183594zm-22.65625-17.457031c-.359375 0-.699219.089844-1.011719.273437-.472656.273438-.804687.714844-.945313 1.242188-.140624.523438-.066406 1.070312.203126 1.535156 1.671874 2.867188 3.996093 5.371094 6.714843 7.238282.34375.234374.738281.359374 1.148438.359374.675781 0 1.300781-.332031 1.679687-.878906.632813-.929687.398438-2.199218-.523437-2.835937-2.230469-1.527344-4.136719-3.574219-5.503907-5.917969-.363281-.628906-1.039062-1.015625-1.761718-1.015625zm-16.972656-25.8125c-.296876 0-.585938.0625-.859376.191406-1.007812.476563-1.445312 1.691407-.96875 2.707031 1.679688 3.570313 3.542969 7.085938 5.539063 10.453126.371094.625 1.027344 1 1.75 1 .367187 0 .714844-.097657 1.042969-.289063.949218-.566406 1.273437-1.816406.707031-2.773437-1.929687-3.25-3.734375-6.660157-5.359375-10.128907-.332031-.703125-1.058594-1.160156-1.851562-1.160156zm-15.28125-24.199219c-.335938 0-.839844.082032-1.308594.480469-.855469.722656-.964844 2.003906-.242188 2.855469 2.226563 2.636718 3.914063 5.789062 4.882813 9.113281.253906.863281 1.058593 1.46875 1.949219 1.46875.179687 0 .375-.03125.585937-.089844.511719-.148437.941406-.492187 1.199219-.96875.261718-.476562.320312-1.023437.167968-1.542969-1.121093-3.851562-3.085937-7.515624-5.683593-10.597656-.382813-.457031-.949219-.71875-1.550781-.71875zm-21.453126-23.914062c-.722656 0-1.398437.382812-1.761718 1-.273438.464844-.351563 1.011718-.214844 1.539062.136719.523438.46875.964844.9375 1.242188 3.339844 1.972656 6.292969 4.683594 8.535156 7.84375.382813.550781 1 .871094 1.660156.871094.417969 0 .820313-.128907 1.15625-.371094.925782-.648438 1.144532-1.921875.496094-2.839844-2.570312-3.636719-5.957031-6.753906-9.785156-9.007812-.308594-.179688-.664062-.277344-1.023438-.277344zm-28.792968-13.859375c-.816406 0-1.550782.488281-1.871094 1.242187-.210938.5-.21875 1.050782-.015625 1.550782.203125.503906.589844.894531 1.085937 1.105468 3.726563 1.582032 7.554688 2.972656 11.382813 4.140625.203125.0625.402344.09375.597656.09375.894531 0 1.671875-.582031 1.9375-1.445312.324219-1.070313-.28125-2.207031-1.351562-2.53125-3.710938-1.132813-7.402344-2.476563-10.980469-3.992188-.25-.109375-.515625-.164062-.785156-.164062zm0 0"/><path d="m145.78125 488.671875c42.519531-16.292969 82.59375-47.277344 119.105469-92.085937 26.410156-32.394532 48.277343-68.242188 64.996093-106.546876 4.765626-10.90625 9.226563-22.144531 13.164063-32.058593l.394531-.992188c3.316406-8.335937 6.449219-16.207031 9.792969-24.117187l3.785156 1.25c-2.957031 12.15625-5.523437 24.257812-8.335937 37.6875-5.875 28.019531-11.953125 56.992187-22.535156 83.980468-16 40.804688-41.511719 75.164063-73.769532 99.359376-31.332031 23.503906-68.921875 36.785156-105.847656 37.390624zm0 0"/><path d="m107.445312 505.9375c-30.300781-.039062-60.816406-1.867188-90.328124-3.632812-2.175782-.125-4.640626-.269532-6.511719-1.308594-4.375-2.425782-4.773438-9.402344-2.90625-15.035156.945312-2.871094 2.058593-4.699219 3.507812-5.742188 1.757813-1.253906 4.179688-1.523438 6.933594-1.722656 13.042969-.96875 26.214844-1.628906 39.144531-1.957032 4.269532-.109374 8.546875-.289062 13.078125-.476562 7.167969-.292969 15.234375-.625 22.964844-.625 11.046875 0 19.847656.667969 27.6875 2.09375 7.996094 1.445312 10.515625 7.414062 11.226563 9.910156l.34375 1.207032-.941407.835937c-.59375.527344-.828125 1.351563-.589843 2.101563.117187.363281.332031.6875.644531.953124l.941406.804688-.300781 1.203125c-1.144532 4.519531-4.433594 7.941406-9.273438 9.628906-4.652344 1.628907-9.828125 1.761719-15.617187 1.761719zm0 0"/><path d="m91.171875 123.136719c-16.707031 0-33.640625-1.050781-50.320313-3.125-1.648437-.203125-3.484374-.429688-4.894531-1.214844-2.738281-1.53125-3.722656-4.929687-4.230469-7.351563l-.441406-2.128906 2.160156-.261718c14.554688-1.769532 29.421876-2.667969 44.199219-2.667969 4.253907 0 8.5625.074219 12.800781.222656l.5625.019531c7.671876.257813 13.632813.917969 14.789063 6.78125.484375 2.480469.074219 4.542969-1.21875 6.128906-1.792969 2.207032-5.320313 3.542969-9.433594 3.582032-1.320312.011718-2.644531.015625-3.972656.015625zm0 0"/><path d="m71.445312 288.46875c-5.296874 0-10.40625-1.730469-14.386718-4.871094-2.589844-2.050781-4.507813-4.484375-5.546875-7.035156-3.082031-7.542969-.488281-17.308594 6.308593-23.746094 2.128907-2.011718 6.558594-5.378906 12.324219-5.378906 2.238281 0 4.46875.519531 6.644531 1.542969 8.488282 4.019531 14.621094 12.570312 14.917969 20.796875.246094 6.71875-3.160156 12.277344-9.855469 16.070312-3.027343 1.714844-6.625 2.621094-10.40625 2.621094zm0 0"/><path d="m52.085938 88.292969 2.800781 1.222656c1.554687.679687 3.136719 1.265625 4.707031 1.738281 4.382812 1.335938 9.007812 2.011719 13.757812 2.011719 3.410157 0 6.875-.351563 10.296876-1.046875l2.089843-.421875.289063 2.113281c.210937 1.542969.28125 3.078125.207031 4.558594-.015625.328125.066406.679688.242187 1.023438l1.511719 2.96875-3.332031-.0625c-2.296875-.042969-4.597656-.0625-6.898438-.0625-7.800781 0-15.722656.246093-23.546874.738281l-2.125.132812zm0 0"/><path d="m81.289062 444.898438c-7.019531-.699219-14.03125-1.050782-20.847656-1.050782l-3.515625.003906v-2.128906l.015625-.117187 1.890625-74.21875 2.730469 1.203125c3.835938 1.6875 8.074219 2.582031 12.253906 2.582031 2.863282 0 5.695313-.4375 8.417969-1.296875l2.757813-.871094-.160157 2.886719c-1.28125 23.492187-1.734375 47.375-1.347656 70.988281l.039063 2.246094zm0 0"/></g><path d="m135.960938 485.714844c-2.035157-6.375-7.351563-10.933594-14.222657-12.1875-2.695312-.480469-5.488281-.875-8.539062-1.210938l-2.304688-.25.585938-2.242187c1.015625-3.894531.269531-8.261719-2.101563-12.300781l-.730468-1.25.957031-1.085938c91.761719-104.21875 185.371093-208.957031 275.898437-310.25.109375-.121094.203125-.277344.332032-.539062l.707031-1.457032 1.984375.488282c.855468.207031 1.714844.417968 2.582031.644531 1.835937.480469 3.339844.84375 4.726563 1.152343l3.5625.789063-2.578126 2.578125c-10.605468 10.605469-19.195312 24.152344-26.265624 41.425781l-.296876.730469-.71875.328125c-.40625.1875-.722656.46875-.933593.832031-12.015625 20.988282-20.816407 43.144532-29.332031 64.566406-4.148438 10.441407-8.441407 21.234376-13.105469 31.933594-16.585938 37.96875-38.257813 73.503906-64.421875 105.613282-37.757813 46.320312-79.214844 77.601562-123.222656 92.972656l-1.9375.679687zm0 0" fill="#ffbf48"/><path d="m30.351562 471.269531c1.039063-8.636719 3.996094-14.875 8.789063-18.546875 5.449219-4.160156 12.957031-4.773437 20.253906-4.8125l1.246094-.003906c7.453125 0 15.054687.425781 22.597656 1.265625 6.777344.765625 13.746094 2.019531 18.828125 5.992187 4.402344 3.441407 7.414063 10.136719 4.835938 15.386719l-.585938 1.1875-1.316406-.074219c-3.640625-.195312-7.46875-.289062-11.707031-.289062-7.792969 0-15.894531.335938-23.042969.632812l-1.730469.066407c-3.925781.160156-7.632812.308593-11.339843.402343-7.789063.199219-15.878907.535157-24.730469 1.027344l-2.382813.132813zm0 0" fill="#ffbf48"/><path d="m73.839844 367.085938c-6.699219 0-13.253906-2.570313-17.980469-7.058594-8.332031-7.90625-11.875-21.074219-9.246094-34.359375 2.097657-10.550781 7.808594-21.34375 17.460938-32.996094l.761719-.917969 1.167968.234375c1.882813.371094 3.707032.558594 5.414063.558594 1.988281 0 3.988281-.226563 5.9375-.679687l1.230469-.28125.785156.988281c9.269531 11.660156 15.21875 26.226562 16.742187 41.015625.75 7.132812.765625 20.269531-7.539062 28.074218-3.714844 3.5-8.949219 5.421876-14.734375 5.421876zm0 0" fill="#ffbf48"/><path d="m59.40625 210.117188c-.398438-26.980469-.808594-54.878907-6.035156-82.113282l-.496094-2.597656 2.632812.230469c10.085938.871093 20.207032 1.386719 30.078126 1.523437l2.882812.039063-1.046875 2.6875c-7.351563 18.847656-8.242187 39.234375-8.144531 56.691406.027344 4.753906.132812 9.597656.238281 14.28125l.019531.886719c.296875 12.75.628906 27.203125-.828125 40.925781l-.261719 2.453125-2.351562-.765625c-1.949219-.636719-3.960938-.960937-5.976562-.960937-2.515626 0-5.023438.5-7.460938 1.484374l-2.707031 1.09375zm0 0" fill="#ffbf48"/><path d="m420.757812 124.628906c.144532-1.585937-.65625-3.175781-2.15625-3.953125-15.46875-8.019531-35.425781-8.78125-59.316406-2.269531-7.140625 1.949219-14.226562 4.347656-21.078125 6.667969-11.023437 3.730469-22.417969 7.589843-33.914062 9.472656-32.800781 5.375-66.1875-7.066406-83.089844-30.949219-5.207031-7.363281-8.890625-15.542968-12.789063-24.203125-3.089843-6.867187-6.285156-13.964843-10.308593-20.59375-17.371094-28.632812-46.675781-43.664062-68.203125-51.226562-26.539063-9.328125-49.636719-10.042969-68.652344-2.125-11.019531 4.589843-20.859375 13.234375-27 23.71875-6.625 11.320312-8.429688 23.707031-5.082031 34.882812 2.75 9.171875 8.851562 17.21875 16.914062 22.832031-.023437.183594-.054687.363282-.054687.550782v14.03125c0 .074218.015625.140625.019531.210937-5.84375.496094-11.675781 1.113281-17.472656 1.878907-2.167969.289062-3.710938 2.253906-3.476563 4.425781.433594 4.042969 1.332032 12.460937 7.910156 16.113281 2.445313 1.359375 5.128907 1.695312 7.089844 1.9375 2.285156.285156 4.578125.546875 6.871094.792969 5.535156 27.339843 5.96875 55.828125 6.378906 83.390625l.546875 36.484375c.007813.453125.105469.878906.246094 1.285156-.160156.144531-.328125.28125-.488281.433594-8.566406 8.113281-11.757813 20.632812-7.75 30.441406 1.433594 3.519531 3.996094 6.800781 7.398437 9.492187 1.332031 1.050782 2.757813 1.96875 4.246094 2.757813-9.195313 11.578125-14.726563 22.527344-16.875 33.382813-3.03125 15.308593 1.191406 30.613281 11.015625 39.9375.367188.351562.746094.6875 1.125 1.015624l-1.933594 76.074219c-.003906.261719.019532.515625.058594.761719-5.542969.632812-10.914062 2.132812-15.476562 5.625-6.375 4.875-10.257813 13.179688-11.296876 24.101562-2.160156.144532-4.324218.28125-6.476562.441407-2.839844.210937-6.730469.5-9.996094 2.835937-3.34375 2.386719-4.882812 6.152344-5.75 8.773438-3.683594 11.121094.21875 19.183594 5.71875 22.238281 3.0625 1.703125 6.410156 1.902344 9.101563 2.0625 29.679687 1.769531 60.371093 3.601563 90.679687 3.636719h.417969c6.164063 0 11.730469-.1875 17.210937-2.101563 5.933594-2.074219 10.273438-6.21875 12.363282-11.40625 2.132812.082031 4.265625.132813 6.398437.132813 39.226563 0 78.757813-13.550782 112.183594-38.621094 33.160156-24.867188 59.363281-60.136719 75.78125-101.996094 10.769531-27.460937 16.894531-56.6875 22.820313-84.953125 3.800781-18.109375 7.726562-36.835937 12.828124-54.832031 6.023438-21.25 15.460938-48.042969 35.160157-66.804688.902343-.859374 1.300781-2.039062 1.222656-3.191406 5.457031.03125 10.113281-1.378906 13.660156-4.183594 3.492188-2.761718 5.660157-7.328124 5.660157-11.914062 0-2.867188-.839844-5.441406-2.390626-7.496094zm-366.667968-33.277344c1.597656.695313 3.238281 1.308594 4.925781 1.820313 7.980469 2.425781 16.601563 2.714844 25.027344 1.007813.1875 1.386718.265625 2.785156.195312 4.1875-.035156.734374.144531 1.425781.460938 2.035156-10.195313-.191406-20.421875.039062-30.609375.679687zm62.886718-19.507812c.125-.011719.25-.011719.378907-.035156 3.378906-.648438 6.914062-.816406 10.511719-.542969-.042969.238281-.070313.480469-.066407.730469 1.242188 120.292968-1.417969 242.195312-7.902343 362.339844-4.714844 5.34375-9.421876 10.6875-14.125 16.03125-4.742188-3.691407-10.421876-5.433594-16.210938-6.433594-.453125-25.410156.078125-51.148438 1.582031-76.507813.542969-.429687 1.078125-.863281 1.585938-1.339843 7.550781-7.097657 10.898437-18.859376 9.421875-33.121094-1.570313-15.164063-7.425782-30.0625-16.578125-42.289063 8.183593-4.917969 12.511719-12.382812 12.191406-21.121093-.320313-8.804688-5.523437-17.535157-13.386719-23.109376 1.898438-14.953124 1.5625-30.144531 1.222656-44.839843-.113281-4.945313-.234374-10.058594-.261718-15.0625-.101563-17.953125.875-38.800781 8.902344-57.351563 0 0 0-.003906.003906-.003906.320312-.003906.640625-.003906.960937-.007812 5.980469-.054688 11.105469-2.171876 14.066407-5.804688 1.710937-2.09375 3.527343-5.726562 2.472656-11.125-2.109375-10.789062-13.097656-11.425781-20.015625-11.664062.320312-.542969.53125-1.160157.5625-1.832032.109375-2.269531-.03125-4.539062-.417969-6.769531 2.867188-1.035156 5.679688-2.292969 8.398438-3.804687 7.566406-4.207032 13.351562-9.960938 16.703124-16.335938zm238.613282 79.4375c7.378906-3.785156 14.929687-7.050781 22.585937-7.242188-7.710937 8.628907-15.449219 17.289063-23.203125 25.964844.472656-6.234375.679688-12.496094.617188-18.722656zm-9.753906 28.949219c-7.113282 7.960937-14.242188 15.941406-21.378907 23.933593l1.789063-38.144531c.007812-.152343-.015625-.296875-.023438-.445312 6.820313-2.835938 13.898438-6.179688 21.300782-10.054688-.082032 8.25-.644532 16.542969-1.6875 24.710938zm-28.289063 31.671875c-9.125 10.21875-18.269531 20.460937-27.429687 30.726562l2.785156-66.820312c8.089844-1.507813 16.421875-3.839844 25.144531-7.035156l-1.871094 39.929687c-.0625 1.269531.484375 2.417969 1.371094 3.199219zm-35.109375 39.335937c-8.195312 9.1875-16.394531 18.386719-24.605469 27.597657l5.546875-101.234376c2.570313.191407 5.15625.3125 7.769532.3125 1.933593 0 3.878906-.050781 5.832031-.160156 2.582031-.144531 5.179687-.378906 7.800781-.695312l-2.992188 71.824218c-.035156.867188.210938 1.679688.648438 2.355469zm-32.996094 37.015625c-7.867187 8.835938-15.742187 17.679688-23.617187 26.535156.222656-48.445312 1.648437-97.410156 4.257812-145.765624 7.757813 3.664062 16.292969 6.25 25.273438 7.652343l-6.046875 110.375c-.023438.417969.039062.820313.132812 1.203125zm-31.433594 35.324219c-8.714843 9.804687-17.433593 19.613281-26.144531 29.429687-.425781-26.609374 1.207031-53.554687 2.796875-79.703124.566406-9.296876 1.152344-18.910157 1.636719-28.375 1.765625-34.585938 2.308594-69.613282 1.625-104.328126 2.546875 3.90625 5.316406 7.691407 8.488281 11.191407 4.53125 4.992187 9.875 9.335937 15.820313 12.984375-2.882813 52.167968-4.402344 105.085937-4.507813 157.324218 0 .519532.105469 1.019532.285156 1.476563zm-29.765624-79.058594c-.480469 9.425781-1.0625 19.019531-1.628907 28.296875-1.773437 29.148438-3.601562 59.28125-2.597656 89.042969-8.105469 9.132813-16.203125 18.269531-24.292969 27.410156.222656-99.195312 2.121094-199.578125 5.648438-298.683593 8.714844 9.0625 15.304687 19.800781 20.304687 28.710937 1.042969 1.859375 2.066407 3.734375 3.097657 5.605469.273437.503906.550781 1.007812.828124 1.511718-.046874.269532-.070312.546876-.0625.832032 1.128907 38.925781.691407 78.382812-1.296874 117.273437zm-36.582032 153.859375c-7.738281 8.746094-15.464844 17.492188-23.179687 26.234375 6.085937-116.804687 8.578125-235.167969 7.386719-352.027343 7.488281 1.882812 14.96875 5.574218 21.679687 10.863281-3.792969 104.347656-5.785156 210.195312-5.917969 314.625 0 .101562.023438.203125.03125.304687zm-114.734375-281.332031c-1.753906-.972656-2.683593-3.320313-3.234375-6.011719 18.75-2.273437 37.800782-3.085937 56.683594-2.429687l.566406.019531c8.105469.277344 12.101563 1.121094 12.894532 5.171875.371093 1.898437.105468 3.363281-.808594 4.484375-1.402344 1.71875-4.425782 2.804688-7.898438 2.835938-17.996094.179687-36.175781-.867188-54.039062-3.085938-1.445313-.179688-3.085938-.382812-4.164063-.984375zm24.484375 93.046875c-.402344-27.136719-.835937-55.152344-6.070312-82.464844 10.046875.871094 20.144531 1.386719 30.214844 1.527344-7.429688 19.050781-8.378907 39.632812-8.277344 57.429688.03125 5.074218.148437 10.226562.261718 15.203124.308594 13.410157.605469 27.234376-.824218 40.667969-4.894532-1.597656-10.011719-1.371093-14.8125.574219zm-8.046875 65.71875c-2.773437-6.804688-.378906-15.660156 5.832031-21.542969 1.789063-1.691406 5.796876-4.828125 10.953126-4.828125 1.804687 0 3.746093.386719 5.785156 1.351563 7.835937 3.707031 13.5 11.542969 13.777344 19.054687.214843 5.929688-2.84375 10.859375-8.84375 14.261719-6.726563 3.808594-16.21875 2.933594-22.566407-2.085937-2.316406-1.828126-4.023437-3.976563-4.9375-6.210938zm-4.78125 50.246094c2.023438-10.222656 7.601563-20.730469 17.039063-32.109375 1.914062.382812 3.859375.597656 5.800781.597656 2.15625 0 4.300781-.25 6.386719-.726563 9.035156 11.367188 14.828125 25.535157 16.324218 39.972657.699219 6.777343.734376 19.21875-6.925781 26.417969-7.558593 7.109374-21.5625 6.347656-29.96875-1.628907-7.839843-7.4375-11.15625-19.902343-8.65625-32.523437zm10.359375 115.667968 1.8125-71.304687c4.164063 1.824219 8.648438 2.742187 13.058594 2.742187 3.09375 0 6.136719-.476562 9.019531-1.386718-1.28125 23.609375-1.738281 47.507812-1.34375 71.136718-7.335937-.734374-14.757812-1.101562-22.128906-1.070312-.144531 0-.289063.003906-.433594.007812 0-.042968.011719-.082031.015625-.125zm-18.582031 12.582032c4.972656-3.800782 12.09375-4.363282 19.046875-4.402344 7.847656-.042969 15.800781.378906 23.605469 1.253906 6.472656.726563 13.113281 1.902344 17.820312 5.574219 3.820313 2.980469 6.324219 8.765625 4.277344 12.933594-11.515625-.617188-23.359375-.136719-34.941406.335937-4.523438.1875-8.796875.363282-13.035157.472656-8.234374.214844-16.527343.570313-24.800781 1.035157.742188-6.148438 2.800781-13.207031 8.027344-17.203125zm82.046875 47.976562c-4.402344 1.539063-9.363281 1.652344-14.957031 1.652344-30.070313-.035156-60.644531-1.859375-90.210938-3.625-2.066406-.121094-4.203125-.25-5.664062-1.0625-3.386719-1.878906-3.546875-7.925781-1.980469-12.65625.816406-2.464844 1.703125-3.976562 2.789062-4.75 1.316407-.945312 3.453126-1.171875 5.898438-1.351562 12.941406-.960938 26.082031-1.621094 39.058594-1.957032 4.300781-.113281 8.601562-.289062 13.160156-.472656 7.566406-.3125 15.25-.628906 22.832031-.628906 9.394531 0 18.640625.484375 27.320313 2.0625 5.699218 1.035156 8.621094 4.839844 9.660156 8.492187-1.140625 1.019531-1.652344 2.648438-1.164062 4.203125.238281.757813.6875 1.386719 1.25 1.863282-.835938 3.296874-3.207032 6.558593-7.992188 8.230468zm224.320312-230.886718c-5.859374 27.941406-11.914062 56.832031-22.4375 83.664062-15.871093 40.464844-41.152343 74.519531-73.113281 98.488281-31.273437 23.453125-68.070312 36.386719-104.679687 36.984375 42.851562-16.414062 83.148437-47.535156 119.945312-92.679687 26.519532-32.542969 48.484375-68.550781 65.277344-107.019531 4.699219-10.761719 9.015625-21.617188 13.1875-32.117188 3.386719-8.519531 6.703125-16.859375 10.167969-25.066406-3.066407 12.617187-5.742188 25.324218-8.347657 37.746094zm21.984376-82.140626c-.742188.335938-1.394532.894532-1.832032 1.65625-12.089844 21.117188-20.921875 43.335938-29.464844 64.824219-4.148437 10.441407-8.4375 21.234375-13.082031 31.871094-16.503906 37.800781-38.082031 73.179687-64.140625 105.152344-37.542968 46.0625-78.667968 77.09375-122.324218 92.347656-2.214844-6.933594-8.113282-12.152344-15.773438-13.542969-2.855469-.519531-5.75-.921875-8.675781-1.234375 1.214843-4.683593.132812-9.664062-2.3125-13.828125 91.523437-103.933594 185.246093-208.804687 275.894531-310.238281.273438-.304687.46875-.644531.632812-.996094.980469.238281 1.96875.484375 2.976563.746094 1.5625.402344 3.164063.808594 4.796875 1.167969-12.292969 12.28125-20.652344 27.296875-26.695312 42.074218zm43.773437-51.539062c-3.757813 2.96875-9.417969 2.707031-13.5 1.964844-2.09375-.378906-4.167969-.914063-6.363281-1.476563-3.5625-.917969-7.246094-1.867187-11.148438-2.15625-12.6875-.953125-24.414062 5.289063-34.761718 10.789063l-1.757813.929687c-26.125 13.828125-47.867187 20.796875-68.417969 21.933594-25.636718 1.414063-49.613281-7.300781-64.152344-23.324219-6.6875-7.375-11.695312-16.511718-16.539062-25.347656-1.042969-1.898438-2.082031-3.796875-3.136719-5.675781-6.707031-11.953125-16.15625-27.070313-29.820312-37.972657-13.203125-10.535156-28.640625-15.527343-42.976563-14.066406.109375-.640625.1875-1.28125.246094-1.925781.667969-7.703125-2.207031-15.945313-7.894531-22.605469-9.410157-11.023437-25.136719-14.941406-36.585938-9.121094-6.636719 3.375-11.332031 10.453126-12.257812 18.472657-.816407 7.078125 1.515625 13.496093 6.394531 17.605469 5.09375 4.292968 13.621094 5.714843 19.070312.671874 3.113282-2.878906 4.082032-7.726562 2.402344-12.054687-1.464844-3.785156-4.671875-6.15625-8.371094-6.183594-.011718 0-.023437 0-.03125 0-2.214843 0-4.015624 1.78125-4.03125 4-.019531 2.226563 1.773438 4.042969 4 4.0625.492188.003907.847657.859375.917969 1.03125.453125 1.175781.292969 2.621094-.363281 3.226563-2.050781 1.898437-6.074219 1.039062-8.398438-.921875-2.777343-2.335938-4.078124-6.167969-3.578124-10.515625.609374-5.285156 3.710937-10.078125 7.902343-12.210938 9.027344-4.585937 20.710938.042969 26.796875 7.171875 4.292969 5.027344 6.476563 11.105469 5.996094 16.671875-.667969 7.683594-6.5625 15.324219-15.765625 20.441406-11.058594 6.144532-23.816406 7.722657-35.003906 4.324219-11.59375-3.523437-21.199219-12.835937-24.464844-23.722656-5.964844-19.894531 9.382813-41.316406 27.457031-48.84375 17.125-7.128906 38.277344-6.359375 62.878906 2.285156 20.285157 7.128907 47.851563 21.210938 63.984376 47.804688 3.769531 6.207031 6.859374 13.078125 9.851562 19.722656 3.882812 8.628906 7.898438 17.550781 13.558594 25.550781 15.78125 22.300782 44.398437 35.585938 74.507812 35.585938 5.460938 0 10.972656-.4375 16.464844-1.335938 12.152344-1.992187 23.867188-5.960937 35.199219-9.796875 6.738281-2.28125 13.707031-4.640625 20.613281-6.523437 20.539062-5.597656 37.65625-5.449219 50.9375.429687.195312.871094.660156 1.6875 1.414062 2.285157 1.09375.867187 1.324219 2.230468 1.324219 3.226562.003907 2.117188-1.042969 4.363281-2.597656 5.59375zm0 0"/><path d="m145.632812 43.128906c-3.644531-1.113281-7.273437-2.433594-10.785156-3.921875-2.050781-.871093-4.414062.085938-5.285156 2.136719-.867188 2.050781.089844 4.414062 2.136719 5.285156 3.773437 1.601563 7.667969 3.015625 11.578125 4.210938.390625.121094.789062.175781 1.179687.175781 1.722657 0 3.320313-1.117187 3.851563-2.855469.652344-2.128906-.546875-4.378906-2.675782-5.03125zm0 0"/><path d="m164.105469 53.300781c-1.921875-1.125-4.390625-.484375-5.519531 1.433594-1.128907 1.917969-.488282 4.386719 1.429687 5.519531 3.101563 1.824219 5.839844 4.339844 7.914063 7.28125.785156 1.113282 2.03125 1.703125 3.296874 1.703125.804688 0 1.617188-.238281 2.324219-.738281 1.816407-1.285156 2.25-3.800781.964844-5.621094-2.734375-3.863281-6.332031-7.175781-10.410156-9.578125zm0 0"/><path d="m186.605469 78.09375c-1.4375-1.703125-3.980469-1.917969-5.683594-.480469-1.699219 1.433594-1.914063 3.976563-.480469 5.679688 2.050782 2.429687 3.609375 5.328125 4.5 8.378906.515625 1.761719 2.121094 2.902344 3.867188 2.902344.375 0 .753906-.050781 1.132812-.164063 2.136719-.621094 3.363282-2.863281 2.738282-5-1.203126-4.121094-3.304688-8.035156-6.074219-11.316406zm0 0"/><path d="m202.460938 103.171875c-.949219-2.015625-3.351563-2.878906-5.363282-1.929687-2.015625.949218-2.878906 3.351562-1.929687 5.363281 1.699219 3.613281 3.59375 7.1875 5.625 10.625.753906 1.269531 2.097656 1.976562 3.476562 1.976562.695313 0 1.402344-.179687 2.046875-.558593 1.914063-1.136719 2.550782-3.605469 1.417969-5.523438-1.90625-3.21875-3.679687-6.570312-5.273437-9.953125zm0 0"/><path d="m224.171875 133.960938c-1.992187-1.367188-3.6875-3.195313-4.90625-5.285157-1.117187-1.921875-3.585937-2.574219-5.511719-1.453125-1.921875 1.117188-2.574218 3.585938-1.453125 5.511719 1.8125 3.113281 4.339844 5.835937 7.308594 7.875.699219.476563 1.492187.707031 2.277344.707031 1.285156 0 2.546875-.609375 3.328125-1.75 1.261718-1.835937.792968-4.34375-1.042969-5.605468zm0 0"/><path d="m251.234375 148.246094c-3.824219-.875-7.570313-2.136719-11.140625-3.757813-2.027344-.921875-4.417969-.023437-5.335938 2.003907-.921874 2.027343-.023437 4.414062 2.003907 5.335937 4.058593 1.84375 8.328125 3.285156 12.675781 4.277344.300781.066406.605469.101562.902344.101562 1.835937 0 3.5-1.265625 3.925781-3.136719.496094-2.167968-.863281-4.328124-3.03125-4.824218zm0 0"/><path d="m282.160156 151.691406c-3.339844 1.066406-7.046875 1.164063-10.441406.269532-2.152344-.5625-4.359375.71875-4.925781 2.871093-.566407 2.152344.71875 4.359375 2.871093 4.925781 2.203126.582032 4.496094.871094 6.792969.871094 2.769531 0 5.542969-.421875 8.160157-1.257812 2.121093-.679688 3.289062-2.949219 2.609374-5.070313-.675781-2.121093-2.949218-3.289062-5.066406-2.609375zm0 0"/><path d="m306.574219 149.5c-1.558594.773438-3.367188 1.082031-5.097657.871094-2.210937-.277344-4.21875 1.300781-4.492187 3.511718-.269531 2.210938 1.300781 4.222657 3.515625 4.492188.671875.082031 1.347656.121094 2.027344.121094 2.632812 0 5.285156-.609375 7.632812-1.777344 1.992188-.988281 2.808594-3.40625 1.816406-5.402344-.988281-1.992187-3.410156-2.808594-5.402343-1.816406zm0 0"/></svg>