<svg id="Layer_1" enable-background="new 0 0 512 512" height="512" viewBox="0 0 512 512" width="512" xmlns="http://www.w3.org/2000/svg"><path d="m317.8 440-56.6-60v-149.9h51v-12h-51v-65.6c0-3.3-2.7-6-6-6s-6 2.7-6 6v65.6h-50.4v12h50.4v149.7l-62.9 60c-2.4 2.3-2.5 6.1-.2 8.5s6.1 2.5 8.5.2l30.8-29.4 25.8 24.3h.1c.3.2.5.4.8.6 0 0 .1 0 .1.1.3.2.6.3.9.5h.1c.3.1.6.2 1 .3h.1c.7.1 1.4.1 2.1 0h.1c.3-.1.7-.2 1-.3h.1c.3-.1.6-.3.9-.4 0 0 .1 0 .1-.1.3-.2.6-.4.8-.6h.1l24-22.5 25.8 27.4c2.2 2.4 6 2.6 8.5.3 2.2-2.3 2.3-6.1 0-8.7.1.1 0 .1 0 0zm-68.6-43.6v28.8l-15.2-14.3zm12 28.8v-27.7l13.9 14.7z" fill="#6d7486"/><path d="m469.6 113h-167c-1.3 7-2.6 15.4-3.5 25.2-1.3 14.6-1.7 29.3-1.1 43.9.4 8.9 1.1 18.4 2.3 28.4.5 4.4 1.1 9 1.9 13.6 5 32.3 14.9 69.1 32.8 109.6 1 2.1 3.2 3.4 5.5 3.3h89.7c2.3.1 4.5-1.2 5.5-3.3 5.8-12.8 10.8-25.1 15.1-37.3 7.6-21.6 13.5-43.8 17.4-66.3 1.1-6.6 2.1-13 2.9-19.3 1.2-10.1 2-19.7 2.4-28.8 1.1-23-.2-46.2-3.9-69z" fill="#c79a83"/><path d="m209 113h-166.8c-1.3 7-2.2 15.4-3.2 25.2-1.3 14.6-1.7 29.3-1.2 43.9.4 8.9 1 18.4 2.2 28.3 4.2 35.5 14.3 77.2 34.8 123.6.9 1.9 2.8 3 4.9 2.9h90.6c2 .1 4-1 4.9-2.9 5.9-12.9 11-25.4 15.3-37.7 7.6-21.6 13.5-43.7 17.4-66.3.4-2.1.7-4.1 1-6.1.7-4.5 1.3-8.9 1.9-13.2 1.2-10.1 2-19.7 2.4-28.8 1.2-23.1-.1-46.3-3.8-69.1h-.4z" fill="#c79a83"/><path d="m335.3 113h-32.7c-1.3 7-2.6 15.2-3.5 25l74.2 199h45.5z" fill="#a07968"/><path d="m424.5 113 43.6 117.2c-4 22.6-9.8 44.8-17.4 66.4l-41.1-100.5c0-10.2-6.3-19.3-15.9-22.9v-60.2z" fill="#a07968"/><path d="m164.2 113 43.6 117.2c-4 22.6-9.8 44.8-17.4 66.4l-41.1-100.5c0-10.2-6.3-19.3-15.9-22.9v-60.2z" fill="#a07968"/><path d="m75 113h-32.7c-1.3 7-2.3 15.4-3.3 25.2l74 198.8h45.5z" fill="#a07968"/><g fill="#f3ce7d"><path d="m393.8 173.2-18.1.4h-.1c-5.8 2.5-10.5 7.1-13 12.9-5.4 12.4.4 26.9 12.8 32.2 12.4 5.4 26.9-.4 32.2-12.8s-.4-26.9-12.8-32.2c-.3-.3-.6-.4-1-.5z"/><path d="m491.5 171.1-18.1 11c-.4 9.1-1.2 18.7-2.4 28.8 12.8 0 25-11.6 25-25.1 0-5.2-1.6-10.3-4.5-14.7z"/><path d="m298 182.1-17.3-10.7c-2.9 4.2-4.4 9.3-4.4 14.4 0 13.5 11.2 24.7 24 24.7-1.2-10-1.9-19.4-2.3-28.4z"/><path d="m231.2 171.1c2.9 4.3 4.5 9.5 4.5 14.7 0 13.5-12.2 25.1-25 25.1 1.2-10.1 2-19.7 2.4-28.8"/><path d="m37.7 182.1c.4 8.9 1.1 18.4 2.3 28.3-12.8 0-24-11.1-24-24.6 0-5.1 1.5-10.2 4.4-14.4"/><path d="m133.5 173.2c12.7 4.8 19.1 18.9 14.3 31.6s-18.9 19.1-31.6 14.3-19.1-18.9-14.3-31.6c2.4-6.3 7.2-11.4 13.4-14h.1"/></g><path d="m464.2 89h-155.5s-3.2 8-6.1 24h167c-1.3-8.1-3.1-16.1-5.4-24z" fill="#978cac"/><path d="m48.4 89s-3.3 8-6.2 24h167.1c-1.3-8.1-3.2-16.1-5.5-24z" fill="#978cac"/><path d="m376 89v97.1c-.1 4.9 3.9 9 8.8 9.1h.1c5 0 9.1-4 9.1-9.1v-97.1z" fill="#56568c"/><path d="m493.7 160.5c.3 3.7-.5 7.4-2.2 10.7-3.5 6.7-10.5 11-18 11 1.2-23.1-.1-46.3-3.8-69.1-1.3-8.1-3.1-16.2-5.5-24.1 2.2 0 4-1.8 4-4 10.9.3 19.7 8.8 20.5 19.6z" fill="#56568c"/><path d="m299.1 138.2c-1.3 14.6-1.7 29.3-1.1 43.9-7.3.1-14.1-4.1-17.3-10.7-1.7-3.4-2.4-7.2-2.1-11l5-55.9c.8-11 10-19.6 21.1-19.6 0 2.2 1.8 4 4 4 0 0-3.2 8.5-6.1 24.1-1.3 7-2.5 15.4-3.5 25.2z" fill="#56568c"/><path d="m233.4 160.5c.3 3.7-.5 7.4-2.2 10.7-3.5 6.7-10.5 11-18 11 1.2-23.1-.1-46.3-3.8-69.1-1.3-8.1-3.1-16.2-5.5-24.1 2.2 0 4-1.8 4-4 10.8.3 19.7 8.8 20.5 19.6z" fill="#56568c"/><path d="m44.4 85c0 2.2 1.8 4 4 4s-3.2 8.5-6.1 24.1c-1.3 7-2.6 15.4-3.5 25.2-1.3 14.6-1.7 29.3-1.1 43.9-7.3.1-14.1-4.1-17.3-10.7-1.7-3.4-2.4-7.2-2.1-10.9l5-55.9c.8-11.2 10-19.7 21.1-19.7z" fill="#56568c"/><path d="m115 89v97.1c.1 5 4.2 9.1 9.2 9.1 2.4 0 4.6-1 6.3-2.6 1.7-1.7 2.6-4 2.5-6.4v-97.2z" fill="#56568c"/><path d="m464.2 68h-155.5c-2-.1-3.7 1.5-3.7 3.5v.3 13.2c-.1 2.1 1.5 3.9 3.6 4h.1 155.4c2.2 0 3.9-1.8 3.8-4v-13.2c.1-2.1-1.6-3.8-3.6-3.8z" fill="#ffc9c0"/><path d="m203.8 68h-155.4c-2.2 0-4.4 1.6-4.4 3.8v13.2c.2 2.3 2.1 4 4.4 4h155.4c2.2 0 4.1-1.8 4.2-4v-13.2c-.1-2.2-2-3.9-4.2-3.8z" fill="#ffc9c0"/><path d="m343 337v12.1c0 2.8 2.6 4.9 5.4 4.9h76.7c2.6.1 4.8-1.9 4.9-4.6 0-.1 0-.2 0-.3v-12.1z" fill="#7f3d32"/><path d="m81 337v11.6c0 3 2.5 5.5 5.6 5.4h.2 75.5c3.1.1 5.7-2.3 5.8-5.3v-.1-11.6z" fill="#7f3d32"/><path d="m48.4 89s-3.3 8-6.2 24h30c2.9-16 6.2-24 6.2-24z" fill="#7e788e"/><path d="m111 348.6v-11.6h-30v11.6c0 3 2.5 5.5 5.6 5.4h.2 30c-3 .1-5.6-2.2-5.7-5.3-.1 0-.1-.1-.1-.1z" fill="#492b27"/><path d="m104.9 334.1c-20.6-46.4-30.7-88.1-34.9-123.7-1.2-10-1.9-19.4-2.2-28.3-.5-14.7-.1-29.3 1.2-43.9 1-9.7 1.8-18.2 3.2-25.2h-30c-1.3 7-2.2 15.4-3.2 25.2-1.3 14.6-1.7 29.3-1.2 43.9.4 8.9 1 18.4 2.2 28.3 4.2 35.5 14.3 77.2 34.8 123.6.9 1.9 2.8 3 4.9 2.9h30c-2 .2-4-1-4.8-2.8z" fill="#a07968"/><path d="m70 210.4c-1.2-10-1.9-19.4-2.2-28.3-.5-14.7-.1-29.3 1.2-43.9 1-9.7 1.8-18.2 3.2-25.2h-29.9c-1.3 7-2.3 15.4-3.3 25.2l33.6 90.3c-1-6.2-1.9-12.2-2.6-18.1z" fill="#725449"/><path d="m74 85v-13.2c0-2.2 2.2-3.8 4.4-3.8h-30c-2.2 0-4.4 1.6-4.4 3.8v13.2c.2 2.3 2.1 4 4.4 4h30c-2.3 0-4.2-1.8-4.4-4z" fill="#efada3"/></svg>