<svg height="511pt" viewBox="0 -10 511.99975 511" width="511pt" xmlns="http://www.w3.org/2000/svg"><path d="m326.417969 420.371094c-6.148438 0-12.507813-2.351563-17.4375-6.445313-6.769531-5.621093-11.445313-14.46875-13.164063-24.914062-1.710937-10.425781-.363281-21.203125 1-29.421875 2.503906-15.144532 6.546875-29.828125 12.015625-43.652344.375-.949219.765625-1.957031 1.167969-3.007812l1.90625.621093-1.867188-.71875c3.507813-9.140625 8.3125-21.65625 17.351563-24.757812.867187-.296875 1.710937-.449219 2.5-.449219 1.207031 0 2.058594.351562 2.597656.617188 4.5 2.265624 7.261719 9.910156 9.699219 17.546874.433594 1.34375.878906 2.738282 1.304688 3.90625 10.984374 30.265626 14.183593 56.445313 9.773437 80.039063-1.589844 8.542969-6.058594 23.65625-18.097656 28.886719-2.671875 1.160156-5.617188 1.75-8.75 1.75zm-.871094-104.960938c-.921875 0-1.847656.296875-2.671875.855469-3.1875 2.179687-4.992188 8.945313-6.707031 16.285156l-.125.527344c-.226563.933594-.417969 1.746094-.585938 2.351563-3.511719 12.746093-4.898437 25.835937-4.132812 38.910156.285156 4.90625.957031 10.566406 3.761719 15.367187 2.207031 3.78125 5.703124 6.128907 9.121093 6.128907.394531 0 .792969-.03125 1.183594-.09375 3.113281-.503907 5.320313-2.816407 6.710937-4.515626 5.175782-6.296874 8.316407-14.84375 9.335938-25.402343 1.308594-13.480469-.914062-27.152344-6.417969-39.546875-2.097656-4.730469-4.714843-9.699219-8.203125-10.6875-.425781-.121094-.847656-.179688-1.269531-.179688zm0 0" fill="#ed6d66"/><path d="m307.511719 300.546875c-3.714844-4.996094-5.636719-10.957031-5.410157-16.78125.273438-7.152344 3.945313-13.925781 9.578126-17.675781 4.277343-2.839844 9.996093-4.277344 17.007812-4.277344l.53125.003906c5.15625.054688 8.910156.871094 11.8125 2.574219 4.144531 2.441406 6.53125 6.71875 7.804688 9.878906 2.609374 6.476563 2.976562 16.039063-2.085938 22.804688l-2.125 2.839843-1.328125-3.289062c-2.597656-6.421875-5.445313-10.234375-8.964844-12.003906-1.394531-.699219-2.894531-1.054688-4.464843-1.054688-1.234376 0-2.511719.222656-3.789063.660156-6.003906 2.0625-10.820313 7.148438-15.164063 16.007813l-1.441406 2.945313zm0 0" fill="#d34242"/><g fill="#f9d889"><path d="m358.914062 377.492188c.320313-4.46875.394532-9.121094.214844-13.820313l-.046875-1.242187 1.089844-.59375c15.5625-8.460938 27.679687-25.394532 33.242187-46.453126 3.128907-11.867187 5.492188-29.632812-1.007812-46.882812-4.703125-12.472656-13.914062-24.203125-27.378906-34.867188-12.761719-10.113281-25.40625-16.007812-37.585938-17.523437-2.265625-.277344-4.601562-.421875-6.9375-.421875-10.882812 0-22.601562 2.96875-35.828125 9.074219-6.042969 2.792969-13.761719 6.789062-19.875 12.980469-5.109375 5.15625-9.28125 11.988281-12.75 20.878906-7.945312 20.371094-8.671875 41.660156-2.050781 59.941406 7.007812 19.355469 22.753906 34.664062 41.09375 39.949219l1.695312.492187-.273437 1.742188c-.8125 5.160156-1.296875 9.726562-1.480469 13.957031l-.113281 2.628906-2.5-.816406c-16.976563-5.519531-29.671875-14.257813-42.464844-29.222656-19.605469-22.929688-24.746093-55.550781-14.105469-89.496094 10.207032-32.585937 54.363282-62.257813 92.636719-62.257813 6.300781 0 12.382813.777344 18.082031 2.3125 26.269532 7.097657 46.90625 21.503907 59.6875 41.671876 12.222657 19.304687 16.777344 42.828124 13.179688 68.035156-4.867188 34.046875-20.457031 51.714844-32.679688 60.539062-7.644531 5.519532-12.890624 9.046875-21.296874 11.460938l-2.753907.789062zm0 0"/><path d="m358.507812 354.808594c-1.488281-14.628906-5.152343-29.835938-11.199218-46.5-.355469-.96875-.738282-2.164063-1.097656-3.300782l-.402344-1.269531 1.019531-.859375c8.777344-7.429687 9.546875-20.785156 5.765625-30.132812-2.164062-5.371094-5.449219-9.472656-9.5-11.859375-4.644531-2.726563-10.125-3.09375-13.84375-3.132813h-.398438c-7.953124 0-14.484374 1.667969-19.410156 4.957032-6.710937 4.453124-11.078125 12.460937-11.402344 20.902343-.300781 7.933594 2.816407 16.019531 8.554688 22.179688.046875.046875.101562.085937.15625.128906l1.226562.984375-.53125 1.363281c-.417968 1.078125-.816406 2.113281-1.207031 3.128907-.398437 1.058593-.796875 2.085937-1.179687 3.054687-4.820313 12.164063-8.574219 25.078125-11.15625 38.375l-.421875 2.183594-2.128907-.65625c-16.953124-5.222657-30.984374-19.117188-37.53125-37.167969-6.285156-17.371094-5.570312-37.644531 2.019532-57.089844 3.265625-8.363281 7.144531-14.742187 11.851562-19.5 5.644532-5.714844 12.953125-9.496094 18.691406-12.148437 12.671876-5.847657 23.828126-8.691407 34.105469-8.691407 2.183594 0 4.355469.132813 6.460938.394532 11.429687 1.414062 23.394531 7.023437 35.554687 16.667968 12.882813 10.191407 21.664063 21.335938 26.101563 33.109376 6.128906 16.277343 3.859375 33.136718.878906 44.417968-4.886719 18.523438-14.792969 33.414063-27.890625 41.933594l-2.75 1.789062zm0 0"/><path d="m334.585938 362.511719c-.351563-.230469-.75-.351563-1.15625-.351563-.144532 0-.292969.015625-.433594.046875-1.839844.417969-3.738282.628907-5.644532.628907-3.652343 0-7.332031-.792969-10.636718-2.289063l-1.277344-.578125.105469-1.394531c.5625-7.433594 1.847656-14.855469 3.828125-22.058594.179687-.632813.371094-1.449219.59375-2.386719l.160156-.660156c1.488281-6.464844 2.765625-10.550781 3.894531-12.484375l1.417969-2.421875 1.828125 2.128906c1.144531 1.339844 2.507813 3.769532 4.039063 7.234375 4.574218 10.300781 6.78125 21.707031 6.382812 32.992188l-.128906 3.566406zm0 0"/><path d="m324.183594 391.773438c-1.933594 0-4.128906-1.617188-5.589844-4.117188-2.355469-4.019531-2.9375-8.890625-3.210938-13.554688-.121093-2.039062-.175781-4.214843-.175781-6.847656v-2.773437l2.632813.878906c3.082031 1.027344 6.277344 1.546875 9.5 1.546875 2.214844 0 4.425781-.25 6.5625-.738281.15625-.035157.339844-.109375.40625-.136719l3.234375-1.351562-.484375 3.472656c-1.183594 8.507812-3.910156 15.402344-8.09375 20.492187-1.550782 1.886719-2.894532 2.867188-4.226563 3.085938-.183593.027343-.367187.042969-.554687.042969zm0 0"/><path d="m131.59375 276.421875c-7.082031-3.15625-13.535156-8.753906-18.652344-16.191406-5.976562-8.710938-9.476562-18.816407-11.855468-26.652344-4.183594-13.789063-6.164063-25.257813-6.234376-36.101563-.132812-20.015624 6.664063-40.398437 19.136719-57.394531 11.894531-16.183593 28.578125-29.097656 48.246094-37.339843 14.082031-5.90625 29.21875-9.03125 43.773437-9.03125 13.507813 0 26.246094 2.5625 37.859376 7.621093 6.214843 2.707031 11.023437 5.746094 14.699218 9.285157l2.191406 2.109374-2.808593 1.175782c-7.957031 3.328125-15.8125 7.164062-23.351563 11.398437l-1.710937.960938-.992188-1.691407c-.199219-.339843-.507812-.609374-.882812-.78125-10.542969-4.730468-21.851563-9.402343-33.921875-9.996093-.859375-.039063-1.734375-.0625-2.609375-.0625-7.480469 0-15.507813 1.554687-23.863281 4.613281-26.371094 9.679688-47.171876 31.664062-54.28125 57.375-7.449219 26.90625.878906 57.066406 20.714843 75.054688l.835938.761718-.214844 1.105469c-1.417969 7.234375-2.519531 14.691406-3.273437 22.15625l-.277344 2.75zm0 0"/><path d="m136.273438 244.304688c-16.289063-17.320313-22.578126-43.816407-16.019532-67.503907 6.753906-24.460937 26.589844-45.402343 51.765625-54.644531 7.902344-2.898438 15.46875-4.367188 22.488281-4.367188.804688 0 1.597657.019532 2.386719.058594 10.4375.507813 20.460938 4.359375 29.742188 8.445313l3.496093 1.539062-3.257812 1.996094c-41.191406 25.226563-72.300781 62.054687-83.210938 98.507813-1.441406 4.824218-2.785156 9.886718-3.984374 15.050781l-.847657 3.636719zm0 0"/></g><path d="m335.964844 485.058594c-27.589844 0-55.894532-5.621094-81.855469-16.253906-31.574219-12.949219-58.921875-32.839844-79.078125-57.523438-19.691406-24.09375-31.847656-53.199219-36.136719-86.519531-3.90625-30.339844-.910156-63.28125 8.667969-95.257813 10.992188-36.742187 42.734375-73.488281 84.914062-98.300781 31.253907-18.390625 64.109376-28.109375 95.011719-28.109375 12.234375 0 23.964844 1.5625 34.863281 4.636719 50.875 14.375 90.875 43.613281 115.667969 84.558593 23.734375 39.207032 32.582031 86.964844 25.589844 138.117188-9.433594 69.117188-39.746094 105.03125-63.515625 122.984375-23.195312 17.535156-53.507812 28.257813-87.65625 31.007813-5.429688.4375-10.972656.660156-16.472656.660156zm-11.285156-293.535156c-16.660157 0-34.3125 4.976562-51.050782 14.386718-22.628906 12.722656-39.699218 31.667969-45.660156 50.675782-10.898438 34.792968-5.324219 69.691406 14.902344 93.351562 13.824218 16.171875 27.820312 25.511719 46.792968 31.222656l1.339844.40625.082032 1.394532c.132812 2.324218.375 4.582031.726562 6.710937 1.875 11.414063 7.050781 21.136719 14.574219 27.375 5.621093 4.679687 12.945312 7.359375 20.09375 7.359375 3.679687 0 7.144531-.691406 10.304687-2.054688 7.210938-3.136718 16.621094-11.210937 20.480469-31.875.257813-1.367187.503906-2.863281.753906-4.570312l.199219-1.34375 1.316406-.3125c11.078125-2.636719 16.945313-6.605469 25.605469-12.855469 23.300781-16.832031 31.523437-43.691406 34.320313-63.261719 7.839843-54.832031-21.929688-99.65625-75.832032-114.195312-5.929687-1.601562-12.304687-2.414062-18.949218-2.414062zm0 0" fill="#ffbf48"/><path d="m146.585938 378.527344c-40.636719-3.96875-80.15625-27.988282-105.722657-64.25-23.914062-33.917969-36.226562-78.464844-34.671875-125.429688 1.101563-33.058594 8.585938-62.257812 22.25-86.785156 10.859375-19.46875 26.167969-37.007812 45.503906-52.132812 35.769532-27.96875 80.925782-43.375 127.15625-43.375 13.089844 0 26.132813 1.265624 38.765626 3.757812 54.667968 10.796875 104.949218 45.621094 134.5 93.15625l2.878906 4.628906-5.191406-1.667968c-3.023438-.972657-5.835938-1.828126-8.601563-2.609376-11.226563-3.171874-23.304687-4.777343-35.898437-4.777343-19.949219 0-40.679688 3.9375-61.609376 11.707031l-1.308593.488281-.910157-1.0625c-4.234374-4.953125-10.199218-9.0625-18.238281-12.566406-12.113281-5.277344-25.398437-7.957031-39.480469-7.957031-15.097656 0-30.777343 3.230468-45.34375 9.339844-20.367187 8.542968-37.640624 21.921874-49.941406 38.6875-12.996094 17.6875-20.078125 38.933593-19.941406 59.824218.078125 11.21875 2.117188 23.054688 6.421875 37.253906 2.457031 8.097657 6.082031 18.578126 12.394531 27.765626 6.0625 8.828124 14.152344 15.429687 22.78125 18.585937l1.40625.515625-.101562 1.496094c-.960938 14.398437-.5625 28.582031 1.179687 42.160156 2.304688 17.910156 6.933594 34.886719 13.75 50.453125l1.367188 3.125zm0 0" fill="#ffbf48"/><path d="m483.203125 189.152344c-22.242187-36.734375-56.273437-64.320313-99.152344-80.628906-.066406-.511719-.226562-1.023438-.496093-1.5-29.90625-52.566407-83.179688-90.941407-142.511719-102.652344-59.328125-11.714844-123.191407 3.53125-170.832031 40.785156-19.988282 15.632812-35.820313 33.785156-47.066407 53.957031-14.140625 25.378907-21.882812 55.503907-23.011719 89.535157-1.59375 48.285156 11.109376 94.140624 35.773438 129.121093 27.691406 39.269531 70.527344 64.375 114.59375 67.15625.070312.003907.140625.007813.210938.007813 5.433593 10.753906 11.980468 20.832031 19.621093 30.1875 20.804688 25.464844 48.980469 45.96875 81.480469 59.292968 26.894531 11.023438 55.675781 16.707032 84.164062 16.707032 5.664063 0 11.324219-.226563 16.949219-.679688 35.292969-2.839844 66.703125-13.980468 90.828125-32.210937 24.679688-18.652344 56.144532-55.828125 65.867188-127.007813 7.175781-52.546875-1.957032-101.675781-26.417969-142.070312zm-440.707031 123.972656c-23.660156-33.554688-35.84375-77.667969-34.304688-124.207031 1.085938-32.738281 8.484375-61.632813 21.996094-85.878907 10.71875-19.226562 25.855469-36.566406 44.992188-51.53125 45.816406-35.828124 107.238281-50.496093 164.300781-39.226562 54.59375 10.777344 103.835937 45.03125 133.1875 92.246094-2.855469-.921875-5.742188-1.804688-8.667969-2.628906-29.777344-8.40625-64.398438-5.769532-98.753906 6.976562-4.429688-5.175781-10.628906-9.472656-18.960938-13.101562-25.910156-11.285157-57.398437-10.785157-86.398437 1.375-20.691407 8.679687-38.253907 22.28125-50.78125 39.34375-13.246094 18.035156-20.464844 39.707031-20.324219 61.027343.074219 11.421875 2.144531 23.441407 6.507812 37.820313 2.503907 8.25 6.207032 18.925781 12.65625 28.320312 6.332032 9.21875 14.71875 16.03125 23.738282 19.332032-.960938 14.484374-.578125 28.773437 1.199218 42.546874 2.347657 18.257813 7.015626 35.289063 13.898438 50.996094-40.152344-3.917968-78.878906-27.382812-104.285156-63.410156zm99.253906-85.363281c-1.507812 5.039062-2.835938 10.105469-4.023438 15.175781-15.71875-16.71875-21.964843-42.40625-15.550781-65.601562 6.597657-23.859376 25.960938-44.28125 50.53125-53.300782 8.558594-3.140625 16.65625-4.546875 24.089844-4.1875 10.039063.492188 19.808594 4.21875 29.035156 8.277344-41.679687 25.523438-72.972656 62.523438-84.082031 99.636719zm91.875-104.210938c-.410156-.671875-1.019531-1.234375-1.789062-1.582031-10.714844-4.8125-22.21875-9.566406-34.644532-10.171875-8.511718-.417969-17.679687 1.15625-27.261718 4.671875-26.96875 9.898438-48.246094 32.398438-55.527344 58.71875-7.648438 27.671875.914062 58.578125 21.304687 77.066406-1.453125 7.457032-2.542969 14.914063-3.300781 22.339844-6.6875-2.972656-12.921875-8.371094-17.8125-15.496094-5.828125-8.484375-9.253906-18.40625-11.589844-26.097656-4.132812-13.617188-6.089844-24.90625-6.160156-35.53125-.128906-19.59375 6.535156-39.554688 18.757812-56.203125 11.667969-15.882813 28.058594-28.566406 47.402344-36.679687 26.980469-11.316407 56.160156-11.832032 80.058594-1.417969 5.996094 2.609375 10.632812 5.542969 14.113281 8.894531-7.90625 3.300781-15.777343 7.125-23.550781 11.488281zm268.007812 206.582031c-9.347656 68.433594-39.277343 103.933594-62.738281 121.664063-22.902343 17.308594-52.851562 27.890625-86.617187 30.609375-32.648438 2.628906-66.332032-2.714844-97.40625-15.453125-31.261719-12.816406-58.335938-32.503906-78.292969-56.933594-19.449219-23.804687-31.457031-52.578125-35.699219-85.511719-3.871094-30.058593-.898437-62.714843 8.597656-94.433593 10.855469-36.269531 42.265626-72.585938 84.019532-97.148438 43.425781-25.550781 90.195312-34.03125 128.3125-23.269531 50.375 14.226562 89.96875 43.160156 114.5 83.671875 23.492187 38.796875 32.25 86.105469 25.324218 136.804687zm0 0"/><path d="m344.148438 192.003906c-21.40625-5.78125-47.472657-1.347656-71.5 12.160156-23.066407 12.96875-40.480469 32.34375-46.585938 51.824219-11.105469 35.453125-5.390625 71.058594 15.289062 95.246094 14.085938 16.476563 28.382813 26.015625 47.734376 31.847656.136718 2.292969.371093 4.605469.75 6.914063 1.953124 11.882812 7.375 22.035156 15.269531 28.59375 6.140625 5.101562 13.902343 7.816406 21.375 7.816406 3.863281 0 7.648437-.726562 11.09375-2.222656 7.660156-3.328125 17.636719-11.808594 21.652343-33.335938.289063-1.539062.546876-3.089844.773438-4.648437 11.382812-2.710938 17.488281-6.816407 26.308594-13.1875 23.867187-17.238281 32.277344-44.640625 35.128906-64.59375 7.988281-55.894531-22.347656-101.589844-77.289062-116.414063zm5.035156 115.617188c-.324219-.898438-.6875-2.019532-1.070313-3.210938 9.507813-8.042968 10.457031-22.230468 6.335938-32.417968-2.332031-5.777344-5.910157-10.210938-10.34375-12.820313-5.066407-2.984375-10.890625-3.378906-14.835938-3.414063-8.488281-.0625-15.558593 1.703126-20.945312 5.285157-7.226563 4.804687-11.933594 13.425781-12.28125 22.492187-.328125 8.460938 2.980469 17.070313 9.085937 23.621094.140625.152344.296875.269531.453125.394531-.421875 1.074219-.824219 2.121094-1.210937 3.132813-.40625 1.058594-.796875 2.074218-1.175782 3.03125-4.886718 12.339844-8.660156 25.339844-11.253906 38.730468-16.199218-4.984374-29.925781-18.507812-36.242187-35.941406-6.121094-16.910156-5.410157-36.679687 2-55.671875 3.164062-8.109375 6.898437-14.269531 11.40625-18.828125 5.4375-5.496094 12.535156-9.15625 18.113281-11.734375 14.972656-6.914062 27.882812-9.574219 39.476562-8.136719 11.050782 1.371094 22.679688 6.839844 34.5625 16.25 12.59375 9.980469 21.164063 20.832032 25.46875 32.253907 5.945313 15.769531 3.726563 32.195312.824219 43.199219-4.773437 18.070312-14.492187 32.597656-27.054687 40.769531-1.484375-14.652344-5.226563-30.226563-11.3125-46.984375zm-40.0625-8.261719c-3.417969-4.601563-5.230469-10.113281-5.023438-15.515625.253906-6.523438 3.585938-12.691406 8.695313-16.089844 4.015625-2.671875 9.519531-4.007812 16.40625-3.933594 4.792969.042969 8.230469.773438 10.816406 2.296876 3.652344 2.148437 5.800781 6.023437 6.960937 8.894531 2.554688 6.328125 2.511719 15.0625-1.828124 20.867187-2.183594-5.421875-5.195313-10.671875-9.921876-13.042968-2.980468-1.5-6.371093-1.671876-9.800781-.496094-7.710937 2.644531-12.683593 9.628906-16.304687 17.019531zm42.183594 90.007813c-1.523438 8.15625-5.75 22.5625-16.941407 27.421874-7.386719 3.207032-17.078125 1.4375-24.105469-4.402343-6.402343-5.316407-10.828124-13.730469-12.464843-23.699219-1.664063-10.128906-.34375-20.695312.992187-28.769531 2.480469-15 6.488282-29.546875 11.90625-43.238281.390625-.980469.789063-2.023438 1.207032-3.113282 3.367187-8.777344 7.980468-20.800781 16.144531-23.601562.726562-.25 1.335937-.34375 1.84375-.34375.75 0 1.296875.207031 1.722656.417968 4.105469 2.0625 6.96875 11.023438 8.683594 16.375.457031 1.4375.894531 2.800782 1.3125 3.960938 10.863281 29.921875 14.035156 55.761719 9.699219 78.992188zm62.152343-82.089844c-4.765625 33.347656-19.960937 50.597656-31.867187 59.199218-7.445313 5.375-12.464844 8.804688-20.683594 11.160157.332031-4.585938.402344-9.265625.222656-14.042969 16.066406-8.742188 28.476563-25.972656 34.21875-47.703125 3.207032-12.140625 5.621094-30.339844-1.074218-48.097656-4.828126-12.8125-14.25-24.835938-28.007813-35.734375-13.058594-10.34375-26.039063-16.375-38.578125-17.929688-13.132812-1.628906-27.472656 1.257813-43.847656 8.820313-6.195313 2.859375-14.121094 6.964843-20.464844 13.382812-5.300781 5.355469-9.613281 12.410157-13.183594 21.5625-8.125 20.816407-8.859375 42.605469-2.070312 61.351563 7.289062 20.132812 23.40625 35.703125 42.414062 41.1875-.667968 4.261718-1.277344 9.089844-1.496094 14.179687-16.761718-5.449219-28.96875-13.886719-41.5625-28.617187-19.140624-22.394532-24.144531-54.324219-13.71875-87.597656 11.078126-35.363282 65.585938-70.136719 108.292969-58.613282 25.769531 6.953125 46.003907 21.066406 58.511719 40.808594 11.972656 18.890625 16.429688 41.949219 12.894531 66.683594zm0 0"/><path d="m327.363281 313.664062c-1.921875-.546874-3.917969-.210937-5.617187.949219-3.777344 2.578125-5.644532 9.441407-7.53125 17.480469-.265625 1.132812-.492188 2.109375-.6875 2.8125-3.5625 12.957031-4.976563 26.261719-4.199219 39.550781.304687 5.148438 1.019531 11.105469 4.027344 16.257813 2.601562 4.453125 6.738281 7.121094 10.851562 7.121094.5 0 1.003907-.039063 1.5-.121094 3.78125-.613282 6.347657-3.277344 7.945313-5.222656 5.425781-6.609376 8.710937-15.515626 9.773437-26.472657 1.335938-13.832031-.9375-27.855469-6.574219-40.554687-2.402343-5.414063-5.214843-10.589844-9.488281-11.800782zm-6.0625 23.382813c.214844-.78125.46875-1.859375.761719-3.109375.582031-2.46875 2.210938-9.414062 3.683594-11.9375.726562.832031 1.933594 2.671875 3.738281 6.734375 4.480469 10.089844 6.59375 21.105469 6.203125 32.109375-.890625-.59375-2.003906-.84375-3.128906-.585938-5.019532 1.140626-10.335938.585938-15.023438-1.539062.558594-7.285156 1.804688-14.535156 3.765625-21.671875zm6.121094 50.328125c-1.191406 1.449219-2.203125 2.25-3.003906 2.382812-1.195313.183594-2.953125-1.144531-4.101563-3.109374-2.144531-3.671876-2.679687-8.253907-2.9375-12.660157-.132812-2.246093-.171875-4.492187-.171875-6.734375 3.265625 1.089844 6.695313 1.652344 10.132813 1.652344 2.347656 0 4.703125-.261719 7.003906-.785156.257812-.058594.5-.144532.730469-.246094-1.125 8.105469-3.683594 14.667969-7.652344 19.5zm0 0"/></svg>