<svg height="503pt" viewBox="0 -59 503.9877 503" width="503pt" xmlns="http://www.w3.org/2000/svg"><path d="m88.03125 260.492188h-24c-2.207031 0-4-1.789063-4-4 0-2.207032 1.792969-4 4-4h24c2.207031 0 4 1.792968 4 4 0 2.210937-1.792969 4-4 4zm0 0" fill="#f6bb42"/><path d="m88.03125 228.492188h-24c-2.207031 0-4-1.789063-4-4 0-2.207032 1.792969-4 4-4h24c2.207031 0 4 1.792968 4 4 0 2.210937-1.792969 4-4 4zm0 0" fill="#f6bb42"/><path d="m88.03125 196.492188h-24c-2.207031 0-4-1.789063-4-4 0-2.207032 1.792969-4 4-4h24c2.207031 0 4 1.792968 4 4 0 2.210937-1.792969 4-4 4zm0 0" fill="#f6bb42"/><path d="m144 112.492188c-30.929688 0-56 25.066406-56 56v112.707031c0 30.933593 25.070312 56 56 56s56-25.066407 56-56v-112.707031c0-30.933594-25.070312-56-56-56zm40 168c0 22.097656-17.902344 40-40 40s-40-17.902344-40-40v-112c0-22.09375 17.902344-40 40-40s40 17.90625 40 40zm0 0" fill="#edab37"/><g fill="#f6bb42"><path d="m216 244.492188c-2.207031 0-4-1.789063-4-4 0-2.207032 1.792969-4 4-4 6.617188 0 12-5.382813 12-12 0-6.613282-5.382812-12-12-12-2.207031 0-4-1.789063-4-4 0-2.207032 1.792969-4 4-4 11.03125 0 20 8.96875 20 20 0 11.035156-8.96875 20-20 20zm0 0"/><path d="m256.886719 297.367188c-2.207031 0-4-1.792969-4-4 0-11.503907-9.367188-20.875-20.878907-20.875-2.207031 0-4-1.789063-4-4 0-2.207032 1.792969-4 4-4 15.929688 0 28.878907 12.953124 28.878907 28.875 0 2.207031-1.78125 4-4 4zm0 0"/><path d="m232.007812 184.492188c-2.207031 0-4-1.789063-4-4 0-2.207032 1.792969-4 4-4 11.511719 0 20.878907-9.375 20.878907-20.886719 0-2.207031 1.792969-4 4-4 2.210937 0 4 1.792969 4 4 0 15.929687-12.949219 28.886719-28.878907 28.886719zm0 0"/><path d="m232.007812 264.492188h-135.6875c-.121093 0-.207031.058593-.320312.066406v7.871094c.113281.007812.199219.0625.320312.0625h135.6875c2.207032 0 4-1.789063 4-4 0-2.207032-1.792968-4-4-4zm0 0"/><path d="m232.007812 176.492188h-136.007812v8h136.007812c2.207032 0 4-1.789063 4-4 0-2.207032-1.792968-4-4-4zm0 0"/><path d="m216 204.492188h-120v8h120c2.207031 0 4-1.789063 4-4 0-2.207032-1.792969-4-4-4zm0 0"/><path d="m216 236.492188h-120v8h120c2.207031 0 4-1.789063 4-4 0-2.207032-1.792969-4-4-4zm0 0"/></g><path d="m112 192.492188c0 8.792968-7.191406 16-16 16s-16-7.207032-16-16c0-8.789063 7.191406-16 16-16s16 7.210937 16 16zm0 0" fill="#ffce54"/><path d="m0 32.492188h16v192h-16zm0 0" fill="#f6bb42"/><path d="m96 240.492188c8.800781 0 16 7.113281 16 16 0 8.722656-7.039062 15.839843-15.679688 16-.082031 0-.242187 0-.320312 0-8.800781 0-16-7.199219-16-16 0-8.894532 7.199219-16 16-16zm0 0" fill="#ffce54"/><path d="m112 224.492188c0 8.800781-7.199219 16-16 16s-16-7.199219-16-16c0-8.886719 7.199219-16 16-16s16 7.105468 16 16zm0 0" fill="#ffce54"/><path d="m96.238281 196.492188c-2.207031 0-4.039062-1.789063-4.039062-4 0-2.207032 1.753906-4 3.953125-4h.085937c2.203125 0 4 1.792968 4 4 0 2.210937-1.789062 4-4 4zm0 0" fill="#f6bb42"/><path d="m96.238281 228.476562c-2.207031 0-4.039062-1.789062-4.039062-4 0-2.207031 1.753906-4 3.953125-4h.085937c2.203125 0 4 1.792969 4 4 0 2.210938-1.789062 4-4 4zm0 0" fill="#f6bb42"/><path d="m96.238281 260.476562c-2.207031 0-4.039062-1.789062-4.039062-4 0-2.207031 1.753906-4 3.953125-4h.085937c2.203125 0 4 1.792969 4 4 0 2.210938-1.789062 4-4 4zm0 0" fill="#f6bb42"/><path d="m168 384.492188c-37.519531 4.3125-68.097656-3.589844-98.640625-24-69.765625-46.605469-69.359375-136-69.359375-136 27.679688 112.707031 118.960938 144 144 144 66.960938 0 108.503906-46 122.511719-68.292969l29.488281-35.707031c23.761719-28.160157 55.601562-76.636719 40.960938-120-9.921876-25.359376-11.601563-44.488282-2.722657-51.046876 17.28125-12.71875 68.082031 26.71875 113.363281 88.082032 45.191407 61.4375 67.917969 121.605468 50.550782 134.328125-8.082032 6-20.632813-3.363281-42.160156-13.203125-108.632813-51.847656-169.992188 70.480468-287.992188 81.839844zm0 0" fill="#f6bb42"/><path d="m144 368.492188c-25.039062 0-48.558594-6.40625-69.039062-17.605469-44.640626-24.472657-74.960938-71.921875-74.960938-126.394531 0-79.527344 64.480469-144 144-144s144 64.472656 144 144c0 12.5625-1.601562 24.800781-4.640625 36.394531-16.160156 61.917969-72.398437 107.605469-139.359375 107.605469zm-123.039062-108.796876c15.191406 53.589844 64.558593 92.796876 123.039062 92.796876 43.601562 0 82-21.765626 105.121094-54.964844 14.40625-20.722656 22.878906-45.921875 22.878906-73.035156 0-27.125-8.480469-52.328126-22.878906-73.046876-23.121094-33.199218-61.511719-54.953124-105.121094-54.953124-70.71875 0-128 57.28125-128 128 0 12.234374 1.679688 24 4.960938 35.203124zm0 0" fill="#ffce54"/><path d="m16 28.492188c0 2.203124-1.800781 4-4 4h-8c-2.199219 0-4-1.796876-4-4v-24c0-2.199219 1.800781-4 4-4h8c2.199219 0 4 1.800781 4 4zm0 0" fill="#656d78"/><path d="m0 28.492188h16v4h-16zm0 0" fill="#656d78"/></svg>