<svg height="512pt" viewBox="0 -1 512.00192 512" width="512pt" xmlns="http://www.w3.org/2000/svg"><path d="m446.785156 98.125c-.214844-.164062-.449218-.277344-.707031-.335938-4.554687-1.117187-9.214844-2.578124-12.46875-5.664062-2.800781-2.640625-4.671875-7.394531-2.621094-11 .410157-.726562.324219-1.652344-.214843-2.296875-.390626-.46875-.953126-.734375-1.558594-.734375-.226563 0-.449219.039062-.660156.113281-1.367188.476563-2.820313.71875-4.320313.71875-2.910156 0-5.746094-.90625-7.992187-2.550781-3.40625-2.496094-5.550782-6.84375-5.457032-11.078125l.019532-.832031.605468-.574219c5.449219-5.160156 11.246094-10.148437 16.363282-14.546875 7.378906-6.320312 14.976562-12.828125 23.941406-16.613281 1.554687-.660157 3.378906-1.332031 5.144531-1.332031.273437 0 .539063.015624.800781.046874 1.667969.210938 3.289063 1.117188 4.792969 2.0625 6.433594 4.074219 11.960937 9.636719 15.980469 16.09375 1.339844 2.160157 3.085937 5.382813 2.804687 8.460938-.25 2.699219-1.90625 5.183594-3.734375 7.703125-8.320312 11.515625-17.785156 22.355469-28.128906 32.210937l-1.234375 1.179688zm0 0" fill="#935252"/><path d="m132.390625 504.621094c-30.660156 0-61.816406-12.578125-85.484375-34.511719l-1.863281-1.726563 2.113281-1.40625c3.625-2.414062 7.28125-4.816406 10.945312-7.210937l1.117188-.726563 1.417969.964844.136719.191406c18.609374 17.613282 44.078124 27.746094 69.832031 27.746094.886719 0 1.761719-.007812 2.644531-.027344 26.730469-.71875 52.617188-12.257812 71.015625-31.667968 3.519531-3.71875 7.222656-8.289063 7.976563-13.976563 1.097656-8.265625-4.09375-14.753906-9.113282-21.03125-2.550781-3.179687-5.179687-6.449219-6.921875-9.933593-8.113281-16.3125 4.90625-35.726563 9.089844-41.285157 6.144531-8.148437 15.941406-17.859375 27.75-17.859375h.320313c4.523437.074219 8.847656 1.523438 13.433593 3.054688 4.757813 1.585937 9.675781 3.230468 14.855469 3.230468.5625 0 1.128906-.019531 1.699219-.058593 12.15625-.863281 20.84375-10.992188 25.988281-19.335938 8.414062-13.640625 12.527344-28.320312 11.894531-42.460937-.65625-14.386719-6.558593-28-16.195312-37.34375l-1.410157-1.367188 12.117188-12.929687 1.457031 1.628906c12.445313 13.933594 19.222657 33.460937 18.589844 53.574219-.605469 18.875-7.722656 38.613281-20.050781 55.582031-6.425782 8.84375-12.617188 14.660156-19.492188 18.3125-4.859375 2.574219-10.101562 3.933594-15.160156 3.933594-3.585938 0-6.933594-.671875-9.953125-2-2.066406-.914063-3.996094-2.121094-6.042969-3.394531-3.730468-2.320313-7.542968-4.691407-12.113281-5.207032-.597656-.070312-1.210937-.105468-1.820313-.105468-4.546874 0-9.230468 1.855468-13.191406 5.222656-6.839844 5.804687-10.449218 15.296875-9.195312 24.175781 1.257812 8.878906 7.355468 16.996094 15.542968 20.675781.609376.277344 1.238282.53125 1.871094.789063l.453125.183593c2.808594 1.128907 5.46875 2.199219 6.582031 4.367188.84375 1.613281.71875 3.703125.457032 5.722656-1.125 8.976563-4.71875 18.316406-10.675782 27.738282-17.917968 28.328124-50.855468 46.863281-85.964843 48.371093-1.539063.066407-3.101563.101563-4.652344.101563zm0 0" fill="#935252"/><path d="m29.691406 456.015625c-12.710937-12.722656-20.894531-30.652344-23.035156-50.488281-1.933594-17.984375.878906-37.195313 8.355469-57.105469 11.78125-31.347656 33.46875-59.074219 61.070312-78.066406 3.421875-2.355469 10.066407-6.304688 16.132813-6.304688 2.6875 0 5.003906.765625 6.882812 2.273438 2.308594 1.851562 3.679688 4.6875 5.132813 7.6875 1.375 2.859375 2.757812 5.726562 5 8.070312 3.167969 3.292969 8.015625 5.183594 13.300781 5.183594 2.453125 0 4.882812-.402344 7.222656-1.195313 7.375-2.507812 12.992188-8.171874 16.574219-12.214843 3.269531-3.671875 7.105469-8.648438 7.800781-14.585938.6875-5.894531-2.609375-13.011719-9.128906-14.230469-.65625-.121093-1.332031-.179687-2.0625-.179687-1.53125 0-2.992188.261719-4.402344.511719-1.34375.242187-2.539062.453125-3.695312.453125-.285156 0-.5625-.011719-.832032-.042969-4.148437-.425781-7.171874-4.6875-7.695312-8.5625-.519531-3.882812.664062-8.269531 3.519531-13.035156 9.308594-15.53125 27.011719-22.710938 40.222657-26.003906 9.214843-2.296876 18.796874-3.464844 28.476562-3.464844 18.90625 0 37.667969 4.449218 54.25 12.863281l2.660156 1.351563-2.257812 1.949218c-2.617188 2.257813-5.238282 4.515625-7.855469 6.785156l-1.03125.890626-1.207031-.628907c-12.351563-6.453125-26.375-9.863281-40.554688-9.863281-11.980468 0-24.015625 2.484375-34.808594 7.183594-3.226562 1.398437-6.535156 3.09375-8.917968 6.019531-2.84375 3.488281-3.472656 8.109375-1.558594 11.503906.863281 1.527344 2.078125 2.597657 3.253906 3.628907l.183594.164062c.410156.359375.820312.722656 1.203125 1.113281 8.011719 8.082031 1.210937 23.035157-1.066406 27.425781-4.546875 8.808594-10.101563 17.132813-16.515625 24.75-7.839844 9.292969-15.148438 13.808594-22.339844 13.808594h-.210938c-4.175781-.066406-8.101562-1.601562-12.257812-3.226562l-.300781-.117188c-2.335938-.902344-4.75-1.839844-7.238281-2.492187-2.949219-.777344-6.101563-1.171875-9.375-1.171875-11.238282 0-22.75 4.503906-34.214844 13.390625-19.621094 15.203125-33.011719 38.003906-36.734375 62.558593-3.726563 24.550782 2.296875 50.296876 16.519531 70.632813.222656.320313.535156.558594.9375.714844l2.578125 1.003906-10.421875 12.621094zm0 0" fill="#935252"/><path d="m224.621094 312.242188c-13.671875-10.585938-27.886719-20.816407-42.246094-30.40625l-2.144531-1.433594 1.921875-1.71875c70.296875-62.898438 143.253906-124.847656 216.839844-184.128906l1.695312-1.367188 1.21875 1.808594c2.488281 3.699218 6.035156 7.453125 10.539062 11.152344.90625.734374 1.8125 1.425781 2.765626 2.101562l1.871093 1.328125-191.023437 203.78125zm0 0" fill="#644c4c"/><path d="m23.773438 473.03125 47.816406-57.980469c1.039062-1.261719 2.078125-2.539062 3.117187-3.8125l.328125-.398437c2.261719-2.785156 4.535156-5.585938 6.832032-8.253906.75-.871094 1.414062-1.566407 1.976562-2.066407l1.410156-1.257812 1.335938 1.335937c.566406.570313 1.304687 1.4375 2.253906 2.65625 5.417969 6.949219 10.710938 14.175782 15.730469 21.476563l1.269531 1.851562-1.980469 1.050781c-26.03125 13.808594-50.703125 30.382813-74.566406 46.414063l-2.871094 1.921875zm0 0" fill="#644c4c"/><path d="m154.34375 393.894531c-1.976562 0-4.464844-.6875-6.652344-1.84375-11.039062-5.839843-18.804687-16.671875-25.214844-26.363281-7.171874-10.875-8.386718-15.84375-8.46875-17.839844l-.089843-2.035156 2.183593-.050781c.636719 0 1.417969.097656 2.328126.296875 2.097656.464844 4.089843 1.683594 6.121093 2.992187 10.863281 6.992188 26.152344 18.144531 33.414063 34.164063 1.808594 3.988281 2.011718 7.078125.585937 8.933594-.609375.796874-1.835937 1.746093-4.207031 1.746093zm0 0" fill="#efb17c"/><path d="m181.96875 352.527344c-1.246094-.746094-2.582031-1.675782-4.203125-2.921875-7.171875-5.519531-13.730469-11.871094-19.496094-18.871094-.484375-.585937-1.027343-1.214844-1.597656-1.875l-.691406-.804687c-1.113281-1.292969-2.371094-2.757813-3.4375-4.207032l-4.152344-5.65625 6.507813 2.613282c13.519531 5.421874 24.433593 16.078124 29.941406 29.234374l2.351562 5.617188zm0 0" fill="#efb17c"/><g fill="#c67045"><path d="m450.957031 102.101562 1.464844-1.402343c1.449219-1.390625 2.878906-2.800781 4.300781-4.222657l1.550782-1.550781 1.402343 1.691407c.171875.207031.382813.371093.636719.503906l12.492188 6.296875-2.03125 1.957031c-2.320313 2.226562-4.554688 4.589844-6.640626 7.019531l-1.417968 1.648438zm0 0"/><path d="m480.109375 88.28125c-2.25-1.859375-4.800781-3.96875-7.664063-5.628906l-2.042968-1.179688 1.5-1.824218c1.503906-1.820313 2.976562-3.667969 4.382812-5.480469l1.09375-1.414063 1.523438.929688c6.246094 3.792968 13.097656 6.226562 19.722656 8.582031l1.578125.566406c1.101563.394531 2.214844.792969 3.324219 1.203125l2.488281.914063-1.566406 2.140625c-1.214844 1.664062-2.636719 3.25-4.238281 5-1.6875 1.859375-3.433594 3.785156-4.933594 5.941406l-1.242188 1.789062zm0 0"/><path d="m427.894531 41.105469c-5.277343-7.277344-11.183593-14.164063-17.546875-20.472657l-1.625-1.609374 16.664063-12.824219 1.183593 1.8125c2.503907 3.835937 4.863282 7.097656 7.46875 10.660156 2.792969 3.839844 5.425782 7.460937 8.296876 12.003906l1.070312 1.695313-1.695312 1.066406c-4.347657 2.730469-8.316407 5.898438-10.925782 8.042969l-1.640625 1.347656zm0 0"/><path d="m390.425781 47.992188 7.972657-6.609376c1.402343-1.164062 2.980468-2.476562 4.667968-3.421874l1.621094-.914063 9.984375 15.089844c.074219.113281.152344.191406.230469.273437l1.414062 1.503906-1.546875 1.367188c-1.417969 1.253906-2.898437 2.601562-4.527343 4.121094l-1.160157 1.082031zm0 0"/><path d="m430.238281 109.703125c-5.816406 0-11.480469-3.640625-15.210937-6.691406-5.191406-4.253907-8.960938-8.5-11.199219-12.613281l-.1875-.347657-.042969-.394531c-.039062-.375-.167968-.714844-.386718-1.011719-.050782-.042969-.101563-.089843-.148438-.140625l-.296875-.292968-.152344-.390626c-.789062-2.015624-1.207031-3.898437-1.285156-5.753906-.15625-3.507812.886719-7.023437 3.101563-10.433594l2.105468-3.242187 1.429688 3.589844c1.234375 3.109375 3.265625 5.757812 5.875 7.667969 2.902344 2.128906 6.539062 3.316406 10.242187 3.34375l1.914063.015624.070312 1.910157c.128906 3.625 1.953125 7.515625 4.753906 10.160156 2.660157 2.519531 6.027344 4.289063 10.914063 5.738281l3.605469 1.066406-2.898438 2.390626c-2.535156 2.09375-5.964844 4.582031-10.007812 5.25-.71875.121093-1.453125.179687-2.195313.179687zm0 0"/><path d="m130.605469 483.886719c-24.035157 0-48.007813-9.285157-65.777344-25.476563l-1.929687-1.757812 2.199218-1.40625c16.929688-10.824219 31.109375-19.117188 44.628906-26.101563.515626-.265625.894532-.746093 1.042969-1.308593.140625-.550782.039063-1.148438-.28125-1.625-5.800781-8.648438-12.003906-17.210938-18.441406-25.457032-1.875-2.398437-3.964844-5.066406-6.699219-5.132812h-.125c-2.515625 0-4.554687 2.128906-6.429687 4.3125-2.171875 2.519531-4.304688 5.132812-6.363281 7.664062l-.554688.675782c-1.066406 1.328124-2.152344 2.652343-3.238281 3.976562l-25.589844 31.03125-1.546875-2.316406-.066406-.121094c-13.605469-19.492188-19.359375-44.136719-15.785156-67.632812 3.566406-23.53125 16.402343-45.378907 35.214843-59.949219 10.417969-8.082031 21.742188-12.53125 31.882813-12.53125 2.839844 0 5.589844.347656 8.179687 1.027343 2.339844.609376 4.601563 1.496094 6.996094 2.429688l.105469.042969c4.339844 1.691406 8.792968 3.425781 13.644531 3.492187h.261719c8.496094 0 16.828125-4.988281 25.472656-15.25 6.605469-7.835937 12.335938-16.414062 17.035156-25.5 7.015625-13.585937 7.128906-25.3125.316406-32.171875-.519531-.527343-1.058593-.996093-1.53125-1.410156l-.128906-.109375c-.921875-.824219-1.792968-1.601562-2.308594-2.507812-1.082031-1.921876-.597656-4.769532 1.167969-6.941407 1.8125-2.238281 4.625-3.660156 7.394531-4.863281 10.113282-4.40625 21.558594-6.734375 33.09375-6.734375 12.515626 0 24.90625 2.710937 35.832032 7.839844l2.78125 1.304687-2.320313 2.015625c-21.429687 18.617188-42.6875 37.371094-63.183593 55.746094-.464844.417969-.71875 1.042969-.671876 1.667969.050782.625.386719 1.191406.921876 1.546875 16.859374 11.082031 33.421874 22.976562 49.21875 35.351562.347656.273438.792968.425781 1.246093.425781.566407 0 1.09375-.226562 1.480469-.640624l53.105469-56.65625 1.460937 1.425781c8.839844 8.621093 14.257813 21.199219 14.859375 34.511719.605469 13.308593-3.296875 27.191406-11.285156 40.148437-4.644531 7.535156-12.371094 16.675781-22.820313 17.414063-.464843.035156-.933593.050781-1.402343.050781-4.507813 0-8.910157-1.46875-13.566407-3.027344-4.683593-1.558594-9.523437-3.171875-14.636718-3.257813h-.417969c-10.683594 0-21.402344 6.738282-30.988281 19.480469-17.464844 23.207031-12.453125 39.570313-9.488282 45.527344 1.894532 3.804687 4.664063 7.265625 7.339844 10.613281 4.753906 5.9375 9.183594 11.46875 8.3125 18.011719-.605468 4.535156-3.828125 8.464844-6.902344 11.710937-17.667968 18.640626-42.523437 29.71875-68.1875 30.402344-.84375.027344-1.6875.039063-2.527343.039063zm-14.507813-142.171875c-2.390625 0-4.125.769531-5.15625 2.292968-.972656 1.40625-3.902344 5.660157 8.152344 23.914063 6.671875 10.105469 14.785156 21.417969 26.695312 27.710937 2.800782 1.484376 5.839844 2.300782 8.554688 2.300782 3.242188 0 5.746094-1.117188 7.4375-3.3125 2.386719-3.113282 2.347656-7.640625-.117188-13.082032-7.707031-16.996093-23.617187-28.632812-34.910156-35.90625-2.351562-1.519531-4.6875-2.933593-7.457031-3.535156-1.15625-.253906-2.234375-.382812-3.199219-.382812zm32.6875-26.921875c-.949218 0-1.621094.273437-2.25.917969-1.410156 1.433593-.828125 3.667968-.164062 5.453124 1.289062 3.480469 4.269531 6.925782 6.898437 9.96875l.320313.367188c.546875.632812 1.074218 1.246094 1.542968 1.816406 5.972657 7.253906 12.757813 13.816406 20.160157 19.511719 1.601562 1.226563 3.730469 2.789063 6.011719 3.984375s4.441406 1.898438 6.597656 2.144531c.097656.011719.171875.015625.242187.015625.980469 0 1.816407-.695312 1.992188-1.65625.578125-3.128906-.421875-6.140625-1.480469-8.675781-6.207031-14.957031-19.175781-27.113281-34.691406-32.519531l-.257813-.089844c-1.816406-.636719-3.527343-1.238281-4.921875-1.238281zm0 0"/></g><path d="m511.632812 82.726562c-.945312-2.453124-3.242187-3.335937-4.109374-3.664062-2.285157-.875-4.617188-1.703125-6.867188-2.503906-6.394531-2.273438-12.457031-4.445313-17.9375-7.660156 2.144531-3 4.195312-6.269532 4.554688-10.289063.445312-4.910156-1.894532-9.316406-3.695313-12.210937-4.5-7.226563-10.683594-13.449219-17.878906-18.003907-2-1.265625-4.429688-2.609375-7.292969-2.964843-3.433594-.425782-6.640625.691406-9.050781 1.710937-.546875.234375-1.085938.476563-1.625.726563-3.070313-4.898438-5.976563-8.898438-8.792969-12.761719-2.652344-3.636719-5.390625-7.394531-8.265625-11.917969-.453125-.714844-1.511719-2.382812-3.621094-2.980469-2.792969-.792969-5.003906.910157-5.730469 1.46875l-17.113281 13.171875c-.402343.3125-1.472656 1.136719-1.9375 2.652344-.332031 1.089844-.550781 3.242188 1.691407 5.382812 7.117187 6.792969 13.632812 14.289063 19.386718 22.277344-1.273437 1.09375-2.554687 2.191406-3.835937 3.300782l-10.523438-15.902344c-.917969-1.386719-2.589843-2.066406-4.222656-1.714844-4.292969.941406-7.59375 3.679688-10.242187 5.878906l-9.296876 7.710938c-1.765624 1.464844-1.910156 3.171875-1.839843 4.058594.078125 1.007812.53125 2.449218 2.222656 3.578124l17.367187 11.625c-5.40625 5.902344-8 12.167969-7.710937 18.648438.097656 2.140625.511719 4.285156 1.242187 6.429688-46.429687 37.382812-92.609374 75.820312-138.066406 114.925781-27.152344-14.722657-59.894531-18.882813-89.863281-11.402344-14.328125 3.578125-33.582031 11.472656-43.949219 28.769531-3.582031 5.984375-5.039062 11.691406-4.328125 16.964844.988281 7.3125 6.496094 13.109375 13.097657 13.785156 2.257812.230469 4.351562-.144531 6.203124-.472656 1.667969-.300781 3.109376-.558594 4.28125-.339844 2.859376.535156 4.585938 4.433594 4.21875 7.566406-.496093 4.230469-3.464843 8.066407-6.304687 11.261719-4.984375 5.613281-9.433594 8.949219-13.992187 10.496094-4.453126 1.511719-10.5625 1.339844-14.199219-2.449219-1.582031-1.648437-2.703125-3.976562-3.890625-6.441406-1.605469-3.335938-3.425782-7.113281-6.828125-9.847656-7.261719-5.828125-18.285157-4.453125-30.246094 3.777344-28.605469 19.679687-51.085937 48.421874-63.304687 80.925781-7.820313 20.808593-10.75 40.960937-8.703126 59.886719 2.328126 21.558593 11.316407 40.949218 25.316407 54.679687l-13.0625 15.839844c-1.160157 1.40625-2.300781 3.03125-3.507813 4.753906-2.199218 3.140625-4.695312 6.703125-6.996094 8.25l-.007812.003906c-1.847656 1.242188-2.3398438 3.746094-1.097656 5.59375.777344 1.160157 2.050781 1.785157 3.347656 1.785157.773438 0 1.554688-.222657 2.246094-.6875.003906 0 .007812-.003907.011718-.007813l25.792969-17.316406c2.890625-1.941407 5.792969-3.890625 8.703125-5.839844 24.84375 23.679687 58.390625 37.445313 91.007813 37.445313 1.636719 0 3.277343-.035157 4.910156-.101563 37.070313-1.59375 71.875-21.203125 90.828125-51.183594 6.433594-10.171875 10.328125-20.34375 11.574219-30.234375.359375-2.84375.511719-6.164062-1.089844-9.257812-2.152344-4.167969-6.347656-5.855469-9.71875-7.210938-.710937-.285156-1.414063-.566406-2.089844-.871094-6.332031-2.84375-11.050781-9.125-12.019531-15.996093-.972656-6.871094 1.820312-14.210938 7.109375-18.703125 3.242187-2.75 7.027344-4.105469 10.398437-3.722656 3.234376.371093 6.328126 2.300781 9.609376 4.339843 2.140624 1.332031 4.351562 2.710938 6.792968 3.785157 9.027344 3.988281 20.390625 3.191406 30.402344-2.121094 7.71875-4.097656 14.566406-10.484375 21.554688-20.101563 13.03125-17.929687 20.5625-38.867187 21.199218-58.953125.699219-22.003906-6.804687-43.199218-20.597656-58.34375l119.539062-127.523437c.167969-.179688.3125-.378907.441407-.582031 3.039062 1.246093 6.019531 1.875 8.929687 1.875 1.09375 0 2.179688-.089844 3.257813-.265626 5.789062-.953124 10.476562-4.410156 14.457031-7.898437l12.144531 12.339844c.757813.769531 1.796875 1.199219 2.871094 1.199219.078125 0 .152344 0 .230469-.003907 1.15625-.066406 2.230468-.628906 2.945312-1.542969 3.855469-4.929687 8.226563-9.488281 12.984375-13.550781 1.027344-.875 1.546875-2.207031 1.386719-3.546875s-.980469-2.507812-2.1875-3.117187l-14.523438-7.332031c1.484376-1.597657 2.945313-3.214844 4.386719-4.851563 2.871094 1.410156 5.542969 3.613281 8.132813 5.757813l15.960937 13.210937c.730469.605469 1.644531.925781 2.570313.925781.320312 0 .640625-.035156.957031-.113281 1.238281-.300781 2.261719-1.171875 2.757813-2.34375 1.285156-3.042969 3.679687-5.679687 6.214843-8.476563 2.121094-2.335937 4.3125-4.753906 6.074219-7.625 1.257812-2.054687 1.546875-4.011718.851562-5.8125zm-59.140624-48.160156c1.582031-.664062 3.398437-1.320312 4.925781-1.132812 1.277343.15625 2.660156.945312 3.96875 1.773437 6.175781 3.90625 11.484375 9.253907 15.347656 15.457031 1.183594 1.902344 2.734375 4.722657 2.507813 7.222657-.195313 2.171875-1.699219 4.414062-3.359376 6.710937-8.28125 11.453125-17.648437 22.171875-27.886718 31.929688-.417969-.316406-.910156-.554688-1.453125-.6875-4.28125-1.050782-8.644531-2.402344-11.5625-5.164063-2.277344-2.152343-3.742188-5.945312-2.257813-8.566406.828125-1.460937.664063-3.28125-.414062-4.570313-1.078125-1.289062-2.839844-1.777343-4.425782-1.21875-3.429687 1.199219-7.53125.589844-10.460937-1.558593-2.90625-2.128907-4.714844-5.816407-4.636719-9.417969 5.277344-5.003906 10.855469-9.8125 16.289063-14.476562 7.242187-6.207032 14.730469-12.628907 23.417969-16.300782zm-27.597657-25.464844c2.628907 4.03125 5.113281 7.441407 7.527344 10.75 2.773437 3.808594 5.40625 7.429688 8.222656 11.890626-3.953125 2.488281-7.648437 5.328124-11.125 8.191406-5.339843-7.351563-11.289062-14.304688-17.765625-20.722656zm-25.222656 33.824219c1.363281-1.132812 2.847656-2.363281 4.375-3.226562l8.960937 13.542969c.128907.195312.28125.371093.4375.535156-1.535156 1.371094-3.0625 2.753906-4.574218 4.160156l-15.109375-10.113281zm-391.023437 362.386719c-1.90625-17.664062.863281-36.566406 8.238281-56.183594 11.640625-30.976562 33.066406-58.367187 60.324219-77.121094 4.175781-2.875 14.539062-9.023437 20.632812-4.128906 1.976562 1.585938 3.257812 4.242188 4.609375 7.054688 1.410156 2.925781 2.863281 5.949218 5.335937 8.527344 5.273438 5.492187 14.359376 7.304687 22.609376 4.5 7.800781-2.648438 13.683593-8.558594 17.429687-12.773438 3.457031-3.894531 7.527344-9.191406 8.285156-15.683594.792969-6.789062-3.089843-15-10.75-16.425781-2.621093-.488281-5.042969-.058594-7.179687.324219-1.457032.261718-2.832032.507812-3.964844.390625-3.132812-.320313-5.515625-3.800781-5.925781-6.84375-.460938-3.414063.636719-7.363281 3.253906-11.738281 8.949219-14.929688 26.140625-21.882813 38.988281-25.089844 27.042969-6.75 56.496094-3.371094 81.34375 9.238281-2.621094 2.261719-5.242187 4.523437-7.859375 6.785156-23.742187-12.398437-52.523437-13.433593-77.09375-2.734375-3.460937 1.503906-7.027343 3.347656-9.671875 6.59375-3.359375 4.121094-4.058594 9.644532-1.742187 13.746094 1.035156 1.835938 2.453125 3.085938 3.707031 4.183594.421875.371094.84375.738281 1.234375 1.132812 7.066406 7.117188.710937 21.027344-1.402344 25.117188-4.492187 8.695312-9.96875 16.898437-16.277343 24.378906-7.421876 8.808594-14.230469 13.09375-20.808594 13.09375-.066406 0-.136719 0-.203125 0-3.769531-.050781-7.539063-1.523438-11.53125-3.082031-2.484375-.96875-5.050781-1.96875-7.757813-2.683594-8.113281-2.136719-24.789062-3.34375-45.328125 12.574219-20.023437 15.519531-33.6875 38.789062-37.488281 63.835937-3.804688 25.046875 2.34375 51.320313 16.859375 72.082031.472656.679688 1.128906 1.144532 1.851563 1.421876l-7.257813 8.796874c-12.390625-12.394531-20.359375-29.839843-22.460937-49.289062zm166.046874-121.289062c16.773438 11.019531 33.289063 22.882812 49.085938 35.253906.734375.578125 1.613281.859375 2.484375.859375 1.082031 0 2.152344-.433594 2.941406-1.277344l51.714844-55.167969c8.398437 8.199219 13.675781 20.347656 14.257813 33.167969.582031 12.921875-3.21875 26.40625-10.992188 39.007813-4.40625 7.140624-11.671875 15.796874-21.265625 16.476562-4.582031.328125-9.257813-1.230469-14.199219-2.878906-4.824218-1.609375-9.8125-3.273438-15.222656-3.363282-.152344 0-.300781 0-.449219 0-11.339843 0-22.601562 7-32.59375 20.277344-18.132812 24.09375-12.808593 41.328125-9.675781 47.621094 1.996094 4.015625 4.84375 7.570312 7.597656 11.007812 4.621094 5.773438 8.613282 10.753907 7.851563 16.464844-.527344 3.976563-3.515625 7.589844-6.367188 10.601563-17.300781 18.253906-41.640625 29.105469-66.78125 29.777343-24.507812.652344-48.792969-8.414062-66.902343-24.917968 14.472656-9.265625 29.269531-18.164063 44.46875-26.011719 1.023437-.527344 1.769531-1.464844 2.054687-2.578125s.085937-2.296875-.558594-3.25c-5.832031-8.6875-12.0625-17.289062-18.515625-25.566406-2.019531-2.585938-4.53125-5.808594-8.234375-5.898438-3.480469-.089844-5.996093 2.539063-8.117187 5-2.378906 2.765625-4.703125 5.621094-6.949219 8.386719-1.136719 1.394531-2.269531 2.789063-3.414063 4.179687l-23.703124 28.734376c-.03125-.050782-.054688-.109376-.089844-.164063-13.339844-19.082031-18.988282-43.230469-15.496094-66.253906 3.496094-23.019531 16.054688-44.40625 34.457031-58.671875 13.003907-10.078125 26.976563-14.136719 38.335938-11.148438 2.257812.597656 4.503906 1.472656 6.878906 2.398438 4.484375 1.75 9.125 3.5625 14.355469 3.632812 9.21875.117188 18.132812-5.09375 27.285156-15.957031 6.695312-7.941406 12.507812-16.644531 17.273438-25.875 7.445312-14.402344 7.433593-26.976563-.035157-34.5-.550781-.554687-1.101562-1.039063-1.636719-1.507813-.84375-.746093-1.644531-1.445312-2.007812-2.09375-.664062-1.179687-.246094-3.195312.972656-4.691406 1.554688-1.910156 4.109375-3.191406 6.640625-4.292968 21.042969-9.160157 46.476563-8.683594 67.277344 1.074218-21.257813 18.476563-42.34375 37.078125-63.203125 55.777344-.933594.832031-1.421875 2.054688-1.328125 3.300781.089844 1.246094.757813 2.378907 1.804687 3.066407zm-146.515624 188.355468-2.867188 1.925782 47.820312-57.980469c1.15625-1.402344 2.300782-2.8125 3.449219-4.222657 2.210938-2.722656 4.5-5.535156 6.804688-8.210937.847656-.984375 1.417969-1.550781 1.789062-1.875.414063.414063 1.070313 1.160156 2.09375 2.46875 5.410157 6.941406 10.664063 14.117187 15.652344 21.378906-26.050781 13.816407-50.785156 30.425781-74.742187 46.515625zm285.609374-172.289062c-.589843 18.492187-7.570312 37.835937-19.660156 54.472656-6.242187 8.585938-12.21875 14.21875-18.816406 17.71875-7.84375 4.164062-16.578125 4.863281-23.363281 1.867188-1.921875-.847657-3.800781-2.015626-5.792969-3.253907-3.890625-2.421875-7.914062-4.929687-12.953125-5.503906-5.566406-.632813-11.59375 1.398437-16.527344 5.585937-7.351562 6.234376-11.226562 16.433594-9.878906 25.976563 1.347656 9.546875 7.902344 18.269531 16.695313 22.222656.773437.347657 1.582031.671875 2.390624 1 2.464844.988281 4.789063 1.921875 5.566407 3.429688.585937 1.128906.453125 2.929687.25 4.546875-1.097657 8.707031-4.589844 17.769531-10.386719 26.933594-17.566406 27.78125-49.890625 45.957031-84.363281 47.4375-31.40625 1.339843-64.28125-11.273438-88.683594-33.878907 3.625-2.410156 7.265625-4.8125 10.933594-7.199219.023437.023438.035156.050782.0625.074219 19.132812 18.152344 45 28.429688 71.34375 28.429688.894531 0 1.792969-.015625 2.6875-.039063 27.265625-.726562 53.660156-12.492187 72.421875-32.289062 3.742187-3.949219 7.675781-8.828125 8.507812-15.082032 1.214844-9.125-4.503906-16.269531-9.550781-22.570312-2.601563-3.25-5.0625-6.316406-6.675781-9.558594-7.601563-15.28125 4.894531-33.855468 8.902344-39.183594 5.878906-7.804687 15.164062-17.0625 26.148437-17.0625.105469 0 .214844 0 .320313.003907 4.167968.066406 8.363281 1.464843 12.800781 2.945312 5.472656 1.828125 11.136719 3.707031 17.324219 3.273438 13-.921875 22.160156-11.539063 27.554687-20.285157 8.628906-13.980468 12.839844-29.058593 12.183594-43.601562-.671875-14.894531-6.890625-29.070312-16.796875-38.6875l9.28125-9.898438c12.117187 13.566407 18.703125 32.484376 18.074218 52.175782zm-87.949218 10.574218c-13.703125-10.625-27.917969-20.855468-42.351563-30.488281 70.355469-62.949219 143.234375-124.828125 216.757813-184.058593 2.621094 3.882812 6.265625 7.75 10.933594 11.574218.960937.789063 1.917968 1.515625 2.867187 2.1875zm206.265625-203.113281c-5.765625.957031-11.78125-2.785156-15.816407-6.09375-5.023437-4.117187-8.597656-8.140625-10.707031-12.019531-.078125-.742188-.359375-1.476562-.863281-2.101562-.074219-.089844-.160156-.164063-.242188-.246094-.6875-1.734375-1.078124-3.441406-1.15625-5.109375-.140624-3.117188.78125-6.179688 2.785157-9.261719 1.339843 3.375 3.597656 6.386719 6.550781 8.546875 3.300781 2.417969 7.34375 3.699219 11.40625 3.726563.15625 4.410156 2.375 8.703124 5.378906 11.542968 3.359375 3.179688 7.503906 4.949219 11.722656 6.203125-2.804687 2.320313-5.796874 4.277344-9.058593 4.8125zm30.511719 3.542969-8.8125-8.957031c1.460937-1.394531 2.902343-2.8125 4.328124-4.246094.339844.40625.765626.753906 1.273438 1.011719l9.972656 5.035156c-2.363281 2.273438-4.625 4.664062-6.761718 7.15625zm36.121093-20.347656c-1.757812 1.9375-3.550781 3.917968-5.097656 6.144531l-12.25-10.144531c-2.375-1.960938-4.976563-4.101563-7.941406-5.824219 1.5-1.824219 2.972656-3.667969 4.417969-5.535156 6.371093 3.875 13.335937 6.367187 20.085937 8.769531 1.609375.570312 3.257813 1.15625 4.882813 1.757812-1.195313 1.632813-2.613282 3.195313-4.097657 4.832032zm0 0"/><path d="m127.835938 343.949219c-2.523438-1.625-5.042969-3.140625-8.109376-3.808594-6.152343-1.347656-9.078124.746094-10.445312 2.742187-2.164062 3.152344-3.191406 8.96875 8.140625 26.136719 6.808594 10.316407 15.109375 21.871094 27.4375 28.386719 2.925781 1.546875 6.296875 2.53125 9.492187 2.53125 3.496094 0 6.777344-1.183594 9.015626-4.101562 1.996093-2.605469 3.640624-7.34375.117187-15.121094-7.917969-17.46875-24.136719-29.347656-35.648437-36.765625zm29.128906 46.984375c-1.277344 1.671875-5.246094.980468-8.335938-.65625-10.648437-5.625-18.21875-16.214844-24.476562-25.699219-7.195313-10.898437-8.085938-15.414063-8.148438-16.8125.394532-.015625 1.03125.039063 2 .25 1.757813.382813 3.515625 1.457031 5.464844 2.710937 10.65625 6.863282 25.632812 17.785157 32.671875 33.316407 1.441406 3.183593 1.742187 5.691406.824219 6.890625zm0 0"/><path d="m154.367188 314.140625c-3.484376-1.214844-6.78125-2.367187-9.265626.167969-2.476562 2.523437-1.117187 6.179687-.609374 7.558594 1.417968 3.828124 4.539062 7.429687 7.292968 10.605468.644532.742188 1.257813 1.449219 1.800782 2.113282 6.066406 7.371093 12.957031 14.042968 20.488281 19.832031 3.941406 3.027343 8.316406 5.914062 13.605469 6.527343.15625.019532.3125.027344.464843.027344 1.921875 0 3.605469-1.371094 3.960938-3.300781.667969-3.628906-.433594-6.992187-1.601563-9.800781-6.417968-15.476563-19.832031-28.050782-35.878906-33.644532zm28.632812 36.675781c-1.375-.820312-2.714844-1.796875-4.011719-2.792968-7.046875-5.417969-13.496093-11.664063-19.171875-18.5625-.585937-.710938-1.246094-1.472657-1.9375-2.269532-1.210937-1.394531-2.582031-2.976562-3.722656-4.53125 12.890625 5.167969 23.558594 15.542969 28.84375 28.15625zm0 0"/></svg>