<svg height="511pt" viewBox="-1 0 511 511.99813" width="511pt" xmlns="http://www.w3.org/2000/svg"><g fill="#935252"><path d="m473.816406 102.953125c-3.726562 0-8.140625-2.191406-11.804687-5.867187-1.746094-1.753907-3.3125-3.671876-4.832031-5.523438-1.511719-1.84375-3.234376-3.9375-5.125-5.832031l-1.304688-1.308594 1.195312-1.40625c1.386719-1.625 2.742188-3.226563 4.070313-4.8125l.90625-1.085937 1.328125.492187c7.019531 2.621094 13.34375 6.960937 18.289062 12.550781 1.277344 1.433594 2.832032 3.367188 3.480469 5.558594.589844 1.953125.300781 3.949219-.753906 5.195312-.601563.707032-1.496094 1.25-2.667969 1.625-.894531.277344-1.824218.414063-2.78125.414063zm0 0"/><path d="m454.527344 126.742188c-2.136719 0-4.34375-.585938-6.386719-1.703126-3.007813-1.628906-5.75-4.324218-8.617187-8.476562-1.078126-1.566406-2.070313-3.144531-3.027344-4.675781-.972656-1.546875-2.070313-3.300781-3.238282-4.980469l-.902343-1.292969 1.046875-1.175781c.800781-.898438 1.574218-1.785156 2.351562-2.671875l1.328125-1.511719 1.503907 1.335938c1.464843 1.296875 3.140624 2.285156 4.761718 3.242187l.8125.484375c4.449219 2.652344 7.796875 5.4375 10.246094 8.515625 2.542969 3.207031 4.101562 6.78125 4.511719 10.347657l.1875 1.660156-1.597657.480468c-.933593.28125-1.9375.421876-2.980468.421876zm0 0"/><path d="m425.6875 63.464844c-8.277344-3.410156-15.472656-9.839844-19.746094-17.652344-2.363281-4.332031-3.488281-8.429688-3.332031-12.179688.089844-2.230468.78125-3.941406 1.902344-4.695312.507812-.34375 1.117187-.519531 1.808593-.519531 1.65625 0 3.949219 1.089843 6.136719 2.910156 8.070313 6.71875 14.085938 15.351563 20.558594 25.121094l.992187 1.5-7.210937 5.976562zm0 0"/><path d="m403.988281 80.714844c-3.667969-2.9375-7.273437-6.117188-10.710937-9.453125-3.136719-3.042969-6.304688-6.402344-8.214844-10.320313-1.929688-3.964844-2.296875-8.152344-1.007812-11.488281l.757812-1.957031 1.917969.851562c5.90625 2.617188 10.320312 7.769532 13.503906 11.96875 1.179687 1.550782 2.351563 3.195313 3.386719 4.648438 2.277344 3.179687 4.609375 6.433594 7.289062 9.386718l1.414063 1.554688-1.625 1.335938c-1.386719 1.136718-2.785157 2.292968-4.183594 3.453124l-1.253906 1.039063zm0 0"/><path d="m275.34375 505.960938c-6.523438 0-14.117188-3.066407-15.390625-9.792969-1.183594-6.308594 2.84375-13.667969 6.082031-19.582031.304688-.542969.578125-1.058594.847656-1.554688l.054688-.101562c1.410156-2.617188 2.929688-5.34375 4.515625-8.109376l.578125-1.003906h1.339844c.222656-.011718.433594-.019531.644531-.019531 2.683594 0 5.535156 1.429687 7.820313 3.929687 2.390624 2.609376 3.976562 6.007813 5.507812 9.289063.34375.734375 1.039062 1.179687 1.824219 1.179687.800781-.003906 1.515625-.472656 1.839843-1.1875 1.503907-3.351562 4.570313-6.28125 9.367188-8.949218 3.574219-1.980469 6.5-2.925782 9.210938-2.984375h.191406c2.890625 0 5.585937 1.1875 7.035156 3.101562l.960938 1.273438-1.023438 1.21875c-5.292969 6.3125-10.597656 12.273437-15.769531 17.722656-6.667969 7.027344-13.925781 14.003906-22.933594 15.371094-.851563.132812-1.761719.199219-2.703125.199219zm0 0"/><path d="m173.808594 353.445312c-.695313 0-1.390625-.113281-2.011719-.332031-2.328125-.808593-4.285156-2.738281-6.25-4.8125l-1.582031-1.671875c-4.789063-5.058594-9.679688-10.21875-13.058594-15.808594-1.015625-1.679687-1.144531-3.207031-.363281-4.300781.738281-1.015625 2.242187-1.617187 4.023437-1.617187.695313 0 1.429688.089844 2.179688.265625 3.738281.890625 6.902344 3.890625 9.6875 6.539062 4.640625 4.386719 9.902344 9.363281 11.324218 15.65625.300782 1.320313.492188 3.164063-.320312 4.445313-.664062 1.042968-1.984375 1.636718-3.628906 1.636718zm0 0"/><path d="m37.296875 466.527344c-15.433594-16.320313-25.855469-36.746094-29.339844-57.511719-3.8125-22.71875.148438-47.320313 11.152344-69.265625 3.6875-7.367188 8.175781-14.402344 13.332031-20.90625l.925782-1.171875 1.386718.554687c7.34375 2.945313 14.242188 8.644532 21.09375 17.429688 8.980469 11.523438 15.65625 25.113281 19.308594 39.289062 2.308594 9 3.230469 17.578126 2.75 25.492188-1.75 28.640625-21.539062 51.816406-37.832031 66.214844l-1.449219 1.28125zm0 0"/></g><path d="m253.734375 290.691406c-13.367187-10.628906-27.007813-21.578125-40.535156-32.542968l-1.703125-1.382813 1.53125-1.566406c48.363281-49.578125 127.15625-114.578125 184.6875-162.039063l1.960937-1.617187 1.109375 2.289062c3.691406 7.625 9.722656 14.238281 16.976563 18.628907l2.058593 1.25-1.601562 1.792968c-32.460938 36.347656-71.550781 78.1875-100.089844 108.734375-8.089844 8.660157-15.609375 16.71875-22.320312 23.917969l-40.628906 43.683594zm0 0" fill="#644c4c"/><path d="m61.542969 449.875c9.367187-11.976562 15.597656-24.367188 18.527343-36.828125l.167969-.703125.574219-.4375c.285156-.214844.488281-.445312.617188-.710938 7.945312-16.195312 16.535156-32.246093 25.53125-47.714843l1.03125-1.777344 1.746093 1.078125c11.894531 7.339844 22.558594 17.109375 30.847657 28.261719l1.316406 1.316406-1.417969 1.425781c-.085937.089844-.191406.179688-.300781.269532-24.027344 20.746093-49.582032 40.503906-75.929688 58.695312zm0 0" fill="#644c4c"/><path d="m485.855469 64.136719c-.6875 0-1.371094-.058594-2.03125-.171875-3.199219-.542969-6.085938-2.597656-7.347657-5.222656-.296874-.613282-.875-1.035157-1.542968-1.125-.0625-.007813-.167969-.011719-.265625-.011719-.59375 0-1.132813.242187-1.515625.6875-2.1875 2.511719-5.605469 3.945312-9.386719 3.945312-3.351563 0-6.492187-1.121093-8.835937-3.152343-4.714844-4.105469-7.660157-10.894532-7.007813-16.148438.335937-2.785156 2.519531-5.773438 5.242187-5.773438l.25.003907c.722657 0 1.394532-.394531 1.757813-1.027344.367187-.652344.335937-1.460937-.089844-2.097656-2.117187-3.152344-4.09375-6.269531-4.898437-9.621094-1.0625-4.5.113281-9.480469 3.074218-13.003906 2.835938-3.382813 7.304688-5.402344 11.945313-5.402344 1.921875 0 3.75.347656 5.4375 1.035156 4.136719 1.691407 8.425781 5.613281 8.082031 10.222657-.058594.8125.386719 1.597656 1.117188 1.953124.273437.132813.570312.203126.878906.203126.5 0 .976562-.183594 1.34375-.515626 3.882812-3.496093 8.054688-6.726562 12.277344-6.726562.507812 0 1.007812.046875 1.492187.140625 2.511719.480469 4.925781 2.390625 6.304688 4.984375 1.257812 2.347656 1.789062 5.351562 1.527343 8.675781-.492187 5.835938-4.265624 12.449219-10.296874 13.238281-.828126.109376-1.511719.730469-1.699219 1.546876-.191407.824218.152343 1.675781.855469 2.128906 4.039062 2.628906 7.765624 7.699218 6.414062 12.628906-.679688 2.476562-2.726562 4.84375-5.617188 6.496094-2.394531 1.378906-4.976562 2.109375-7.464843 2.109375zm0 0" fill="#c67045"/><path d="m288.023438 471.476562c-1.03125-1.757812-2.085938-3.222656-3.230469-4.472656-2.21875-2.421875-4.867188-4.089844-7.664063-4.824218l-2.582031-.679688 1.378906-2.285156c2.828125-4.703125 5.644531-9.222656 8.613281-13.816406 4.609376-7.140626 9.46875-14.25 14.4375-21.125l2.664063-3.6875.917969 4.457031c.050781.261719.117187.523437.179687.777343 1.164063 4.546876 5.46875 9.265626 10.652344 9.265626.488281 0 .980469-.042969 1.464844-.125 2.640625-.445313 4.765625-1.953126 7.140625-4.078126 8.46875-7.613281 15.257812-16.742187 20.957031-24.703124 23.429687-32.714844 43.046875-67.421876 59.148437-97.0625 21.882813-40.285157 42.839844-81.828126 62.285157-123.480469 5.851562-12.550781 10.980469-24.867188 9.476562-37.496094l-.1875-1.570313 1.484375-.542968c1.601563-.589844 3.234375-1.035156 4.851563-1.332032l2.011719-.363281.320312 2.019531c1.472656 9.265626-.808594 18.847657-3.277344 27.871094-19.429687 71.128906-54.570312 135.820313-101.359375 211.066406-15.753906 25.328126-34.355469 54.570313-55.78125 81.089844l-1.378906 1.707032-1.574219-1.53125c-2.285156-2.226563-5.640625-3.503907-9.203125-3.503907l-.285156.003907c-3.382813.074218-6.898437 1.179687-11.054687 3.488281-2.9375 1.640625-5.382813 3.433593-7.257813 5.328125l-1.832031 1.851562zm0 0" fill="#c67045"/><path d="m421.203125 109.816406c-7.804687-4.300781-14.238281-11.453125-17.648437-19.621094l-.570313-1.367187 1.144531-.945313c14.191406-11.714843 27.601563-22.785156 39.808594-32.992187l1.84375-1.539063 1.179688 2.089844c1.464843 2.585938 3.359374 4.957032 5.332031 6.675782 1.621093 1.40625 3.527343 2.484374 5.664062 3.203124l2.75.925782-1.84375 2.238281c-9.371093 11.402344-20.886719 24.78125-35.195312 40.910156l-1.0625 1.195313zm0 0" fill="#c67045"/><path d="m115.917969 501.96875c-3.867188 0-7.742188-.226562-11.523438-.667969-22-2.574219-43.761719-12.882812-61.28125-29.023437l-1.625-1.496094 1.648438-1.46875c3.039062-2.707031 5.914062-5.457031 8.554687-8.179688l1.972656-2.03125 1.261719 2.546876c.378907.519531.980469.828124 1.625.828124.390625 0 .773438-.121093 1.109375-.347656 29.539063-19.871094 58.195313-41.757812 85.183594-65.058594.871094-.753906 2.496094-2.15625 2.621094-4.269531.097656-1.789062-.933594-3.1875-1.550782-4.019531-9.480468-12.792969-21.808593-23.695312-35.667968-31.546875-.308594-.171875-.640625-.261719-.988282-.261719-.710937 0-1.375.378906-1.734374.988282-6.855469 11.664062-13.515626 23.714843-19.789063 35.816406l-3.449219 6.652344-.324218-7.488282c-.265626-6.101562-1.246094-12.492187-2.917969-18.996094-3.769531-14.6875-10.695313-28.785156-20.03125-40.761718-6.613281-8.480469-13.296875-14.257813-20.421875-17.664063l-2.441406-1.164062 1.828124-1.992188c8.179688-8.914062 17.40625-16.277343 27.417969-21.882812l1.214844-.679688 1.058594.902344c8.816406 7.503906 20.597656 11.808594 32.3125 11.808594 2.179687 0 4.355469-.148438 6.472656-.445313 14.601563-2.066406 28.253906-11.289062 35.625-24.070312 5.070313-8.804688 6.277344-18.074219 3.308594-25.433594-1.910157-4.71875-6.003907-8.632812-10.949219-10.460938-1.230469-.457031-2.496094-.765624-3.757812-.921874l-3.222657-.390626 1.800781-2.703124c3.625-5.445313 8.5-10.722657 14.902344-16.136719 22.457032-19.007813 52.804688-29.90625 83.253906-29.90625 12.53125 0 24.789063 1.796875 36.441407 5.339843l3.394531 1.03125-2.644531 2.371094c-23.144531 20.734375-42.492188 39.164063-57.511719 54.777344-.394531.40625-.601562.957031-.566406 1.507812.035156.558594.308594 1.085938.75 1.445313 15.425781 12.527344 31.195312 25.1875 46.867187 37.632813.359375.285156.792969.4375 1.246094.4375.570313 0 1.09375-.230469 1.476563-.644532l43.628906-46.90625 7.671875-8.222656 1.199219 2.84375c8.121093 19.289062 9.019531 43.324219 2.464843 65.945312-5.6875 19.628907-16.824219 39.273438-33.097656 58.386719l-1.222656 1.4375-1.503907-1.136719c-6.164062-4.648437-14.183593-7.210937-22.578124-7.210937-1.488282 0-2.996094.082031-4.480469.242187-9.761719 1.058594-19.734375 5.496094-28.84375 12.832032-11.074219 8.929687-17.8125 19.957031-18.976563 31.050781-1.460937 13.929687 6.601563 24.6875 14.714844 28.785156l1.679688.851563-.746094 1.726562c-8.597656 19.878906-24.242188 37.375-44.058594 49.261719-17.601562 10.558594-37.246094 16.140625-56.800781 16.140625zm131.632812-189.402344c.691407 0 1.394531.0625 2.097657.191406 3.347656.621094 6.042968 2.582032 7.222656 5.25 1.472656 3.320313 1.0625 7.6875-1.105469 11.671876-2.113281 3.847656-5.492187 6.972656-8.832031 9.777343-9.761719 8.203125-20.644532 15.03125-32.34375 20.292969-3.492188 1.5625-7.152344 3.03125-10.695313 4.449219l-.152343.0625c-10.394532 4.167969-21.136719 8.472656-29.792969 15.980469-5.753907 5-9.1875 10.402343-10.203125 16.054687-1.320313 7.316406 2.019531 14.671875 7.953125 17.492187 1.707031.804688 3.644531 1.234376 5.601562 1.234376 2.746094 0 5.449219-.84375 7.613281-2.375 3.816407-2.691407 5.972657-7.429688 5.496094-12.070313-.316406-3.125-1.789062-5.707031-4.039062-7.09375-1.042969-.640625-2.25-.980469-3.488282-.980469-2.144531 0-4.113281 1.019532-5.140624 2.660156-.589844.9375-.304688 2.183594.632812 2.777344.3125.191406.683594.300782 1.058594.300782.65625 0 1.273437-.320313 1.648437-.851563l.503907-.714844.867187-.117187c.117187-.015625.25-.023438.386719-.023438.378906 0 .9375.066406 1.445312.394532 1.125.679687 1.933594 2.207031 2.125 4.058593.328125 3.171875-1.199218 6.539063-3.808594 8.378907-1.503906 1.0625-3.386718 1.644531-5.308593 1.644531-1.359375 0-2.695313-.296875-3.867188-.855469-4.847656-2.300781-6.566406-8.492188-5.726562-13.148438.855469-4.730468 3.84375-9.347656 8.886719-13.726562 8.121093-7.050781 18.046874-11.035156 28.554687-15.257812l.09375-.039063c3.4375-1.375 7.335937-2.933594 11.003906-4.578125 11.980469-5.375 23.175781-12.398438 33.273438-20.875 3.644531-3.050781 7.351562-6.484375 9.769531-10.925781 2.777344-5.066407 3.246094-10.757813 1.257812-15.230469-1.714843-3.882812-5.511718-6.707031-10.15625-7.566406-.941406-.175782-1.894531-.261719-2.835937-.261719-3.664063 0-6.988281 1.304687-9.355469 3.675781-2.367187 2.375-3.550781 5.492188-3.164062 8.328125.347656 2.472657 2.027344 4.6875 4.488281 5.921875 1.214844.613282 2.542969.9375 3.847656.9375 1.273438 0 2.507813-.3125 3.566407-.898437.976562-.539063 1.332031-1.765625.796874-2.734375-.351562-.640625-1.027343-1.039063-1.761718-1.039063-.339844 0-.667969.085938-.972656.253907-.480469.265624-1.023438.394531-1.621094.394531-.683594 0-1.394532-.171875-2.058594-.503907-1.269531-.625-2.132812-1.707031-2.296875-2.882812-.21875-1.597656.539063-3.4375 2.019531-4.933594 1.617188-1.617187 3.929688-2.5 6.515625-2.5zm-93.011719 8.316406c-3.085937 0-5.722656 1.1875-7.234374 3.261719-1.753907 2.410157-1.695313 5.6875.164062 8.765625 3.628906 5.988282 8.917969 11.566406 13.582031 16.488282l1.566407 1.648437c1.105468 1.179687 2.300781 2.40625 3.644531 3.472656 1.402343 1.105469 2.78125 1.886719 4.210937 2.390625 1.027344.363282 2.183594.554688 3.347656.554688 1.441407 0 5.007813-.339844 7.011719-3.5 1.226563-1.929688 1.519531-4.519532.847657-7.488282-1.695313-7.496093-7.675782-13.152343-12.484376-17.699218-3.011718-2.847656-6.75-6.390625-11.515624-7.515625-1.066407-.253907-2.121094-.378907-3.140626-.378907zm-54.199218-7.511718c-3.519532 0-7.34375 2.179687-10.769532 6.140625-1.3125 1.515625-2.753906 3.363281-3.488281 5.613281-1.5 4.609375.332031 10.019531 4.550781 13.460938 3.246094 2.636718 7.632813 4.089843 13.042969 4.320312.511719.019531 1.027344.027344 1.554688.027344 8.113281 0 16.128906-2.710938 22.574219-7.636719 11.585937-8.855469 16.785156-23.625 21.371093-36.65625l.5-1.417969c4.890625-13.871094 11.050781-27.585937 22.882813-33.976562 2.519531-1.363282 5.421875-2.144532 7.96875-2.144532 2.722656 0 4.90625.871094 6.320312 2.523438 2.171875 2.527344 2.171875 6.820312.003906 9.988281-1.171874 1.730469-2.792968 2.835938-4.335937 2.957031l-.21875.007813c-1.023437 0-1.941406-.5625-2.398437-1.117187l-.378907-.464844-.058593-.597656c-.105469-1.03125-.960938-1.804688-1.992188-1.804688-.054688 0-.109375 0-.164062.003906-.535157.042969-1.023438.289063-1.375.699219-.347657.40625-.515626.921875-.476563 1.453125.253906 3.222656 3.316406 5.847656 6.835937 5.847656.164063 0 .332032-.003906.5-.015625 2.792969-.199219 5.484376-1.914062 7.386719-4.703125 3.210938-4.695312 3.089844-10.953125-.285156-14.878906-2.769531-3.226562-6.605469-3.902344-9.339844-3.902344-3.269531 0-6.789062.925782-9.902343 2.609375-13.035157 7.046875-19.605469 21.550781-24.761719 36.171875l-.515625 1.4375c-4.625 13.132813-9.394532 26.671875-20.007813 34.789063-5.644531 4.324219-13 6.808593-20.167969 6.808593-.457031 0-.910156-.011718-1.363281-.03125-.472656-.019531-.914062-.054687-1.359375-.097656l-1.984375-.191406.609375-6.390625 2 .203125c.066406.007812.132813.011719.203125.011719.503907 0 .988281-.191407 1.363281-.53125 2.773438-2.53125 4.363282-5.878907 4.363282-9.191407.007812-3.960937-2.394532-7.585937-5.84375-8.828124-.914063-.328126-1.871094-.496094-2.84375-.496094zm0 0" fill="#c67045"/><path d="m102.5 338.789062c-3.886719-.335937-7.023438-1.453124-9.320312-3.324218-2.910157-2.375-4.25-6.117188-3.269532-9.105469.515625-1.597656 1.660156-3.015625 2.691406-4.21875 1.246094-1.433594 4.472657-4.75 7.730469-4.75.515625 0 1.015625.085937 1.480469.25 1.832031.671875 3.207031 2.835937 3.207031 5.042969-.015625 2.164062-1.164062 4.492187-3.070312 6.238281-.398438.359375-.628907.851563-.65625 1.386719-.023438.539062.160156 1.050781.523437 1.445312.332032.371094.789063.597656 1.292969.652344l1.96875.207031-.609375 6.34375zm0 0" fill="#c67045"/><path d="m169.8125 358.796875c1.242188.4375 2.613281.671875 4.007812.671875 3.3125 0 6.726563-1.328125 8.699219-4.433594 1.519531-2.394531 1.90625-5.507812 1.113281-8.996094-1.832031-8.082031-8.054687-13.976562-13.0625-18.710937-3.179687-3.011719-7.140624-6.757813-12.429687-8.011719-5.148437-1.222656-9.917969.175782-12.449219 3.648438-2.25 3.085937-2.226562 7.191406.066406 10.976562 3.726563 6.164063 9.101563 11.832032 13.84375 16.832032l1.566407 1.65625c2.382812 2.523437 5.015625 5.097656 8.644531 6.367187zm-17.191406-29.007813c-.4375-.71875-.78125-1.644531-.449219-2.101562.371094-.507812 1.820313-1.117188 4.117187-.570312 3.191407.757812 6.027344 3.441406 8.769532 6.035156 4.433594 4.195312 9.460937 8.953125 10.75 14.65625.296875 1.304687.273437 2.402344-.0625 2.929687-.4375.691407-2.035156.929688-3.285156.492188-1.929688-.675781-3.683594-2.421875-5.457032-4.304688l-1.582031-1.671875c-4.683594-4.9375-9.523437-10.039062-12.800781-15.464844zm0 0"/><path d="m483.261719 138.234375c-4.695313.289063-9.410157 1.539063-13.636719 3.617187-.449219.222657-.835938.523438-1.160156.875-1.007813.230469-1.921875.84375-2.511719 1.785157-10.492187 16.796875-22.25 33.226562-33.621094 49.117187-8.355469 11.671875-16.992187 23.746094-25.105469 35.917969-20.855468 31.308594-39.214843 64.785156-56.972656 97.160156-15.015625 27.375-30.539062 55.636719-47.476562 82.4375-.0625.074219-.132813.132813-.191406.210938-8.101563 10.550781-15.875 21.578125-23.101563 32.777343-6.945313 10.765626-12.78125 20.554688-17.839844 29.929688-.285156.527344-.582031 1.074219-.886719 1.628906-3.695312 6.757813-8.296874 15.167969-6.714843 23.578125 1.8125 9.644531 11.699219 14.730469 21.121093 14.730469 1.277344 0 2.546876-.097656 3.789063-.285156 10.882813-1.65625 19.328125-9.734375 26.390625-17.175782 30.839844-32.5 55.183594-70.21875 77.476562-106.070312 47.0625-75.6875 82.425782-140.816406 102.058594-212.65625 2.902344-10.617188 5.726563-22.929688 2.496094-34.640625-.507812-1.828125-2.222656-3.050781-4.113281-2.9375zm-125.976563 192.328125c17.675782-32.222656 35.949219-65.546875 56.617188-96.570312 8.035156-12.058594 16.632812-24.074219 24.949218-35.695313 9.722657-13.585937 19.71875-27.570313 29.027344-41.902344-.90625 8.699219-4.710937 17.617188-8.949218 26.695313-19.363282 41.496094-40.261719 82.929687-62.113282 123.152344-16.015625 29.480468-35.519531 63.988281-58.757812 96.4375-5.519532 7.710937-12.082032 16.539062-20.085938 23.722656-1.277344 1.148437-2.753906 2.390625-4.121094 2.621094-2.238281.390624-4.632812-2.171876-5.285156-4.707032-.84375-3.289062.011719-7.179687.886719-10.714844 17.109375-27.0625 32.726563-55.496093 47.832031-83.039062zm-57.757812 158.453125c-6.429688 6.777344-13.40625 13.496094-21.78125 14.773437-5.691406.863282-14.597656-1.484374-15.824219-8-1.050781-5.59375 2.789063-12.609374 5.871094-18.246093.3125-.570313.617187-1.128907.910156-1.671875 1.425781-2.644532 2.925781-5.332032 4.488281-8.058594.125 0 .242188.011719.367188.003906 2.203125-.191406 4.753906 1.023438 6.796875 3.257813 2.195312 2.394531 3.710937 5.652343 5.179687 8.804687.660156 1.414063 2.078125 2.316406 3.636719 2.316406h.023437c1.566407-.007812 2.984376-.933593 3.632813-2.359374 1.332031-2.957032 4.121094-5.582032 8.523437-8.027344 3.269532-1.816406 5.902344-2.6875 8.273438-2.738282 2.335938-.03125 4.507812.878907 5.597656 2.316407-5.054687 6.019531-10.269531 11.914062-15.695312 17.628906zm177.617187-315.316406c-19.378906 70.90625-54.445312 135.445312-101.136719 210.535156-16.765624 26.960937-34.699218 54.976563-55.636718 80.890625-2.710938-2.636719-6.660156-4.148438-10.917969-4.070312-3.730469.078124-7.542969 1.269531-12 3.746093-3.117187 1.730469-5.675781 3.609375-7.699219 5.660157-.980468-1.671876-2.113281-3.308594-3.484375-4.804688-2.507812-2.738281-5.507812-4.59375-8.632812-5.40625 2.660156-4.429688 5.507812-8.996094 8.585937-13.769531 4.585938-7.109375 9.398438-14.148438 14.375-21.035157.058594.289063.125.578126.199219.863282 1.542969 6.023437 7.480469 11.796875 14.390625 10.625 3.316406-.5625 5.871094-2.523438 8.140625-4.558594 8.605469-7.726562 15.480469-16.96875 21.25-25.023438 23.492187-32.804687 43.152344-67.585937 59.28125-97.28125 21.929687-40.367187 42.902344-81.945312 62.335937-123.585937 5.996094-12.847656 11.21875-25.484375 9.65625-38.582031 1.464844-.535156 2.980469-.953125 4.515626-1.238282 1.40625 8.796876-.792969 18.144532-3.222657 27.035157zm0 0"/><path d="m509.65625 26.496094c.367188-4.457032-.394531-8.609375-2.203125-12.011719-2.246094-4.214844-6.160156-7.230469-10.476563-8.058594-5.125-.988281-9.679687.914063-13.855468 3.871094-2.15625-4.058594-6.140625-7.160156-10.210938-8.816406-8.277344-3.375-18.480468-.824219-24.257812 6.066406-4.167969 4.960937-5.820313 11.960937-4.320313 18.261719.617188 2.601562 1.703125 4.964844 3.007813 7.242187-2.980469 2.113281-4.96875 5.683594-5.394532 9.152344-.257812 2.109375-.140624 4.226563.261719 6.289063-1.53125 1.28125-3.085937 2.582031-4.664062 3.898437-6.058594-9.132813-12.460938-18.386719-21.230469-25.683594-5.488281-4.570312-11.027344-5.574219-15.191406-2.746093-2.738282 1.859374-4.34375 5.199218-4.523438 9.410156-.207031 4.859375 1.160156 10.019531 4.066406 15.335937 4.28125 7.828125 11.039063 14.386719 18.960938 18.5625-1.320312 1.09375-2.644531 2.191407-3.988281 3.296875-2.542969-2.761718-4.785157-5.84375-7.121094-9.109375-1.121094-1.570312-2.28125-3.191406-3.484375-4.773437-3.699219-4.875-8.886719-10.875-16.242188-14.003906-.820312-.347657-3.007812-1.28125-5.398437-.578126-1.4375.417969-3.425781 1.566407-4.746094 4.660157-2.132812 5.003906-1.765625 11.132812 1.011719 16.824219 2.320312 4.753906 5.898438 8.574218 9.421875 11.996093 3.144531 3.050781 6.453125 5.992188 9.851563 8.777344-.515626.421875-1.019532.839844-1.535157 1.265625-40.15625 33.125-86.480469 71.339844-127.378906 107.652344-.335937-.253906-.707031-.472656-1.128906-.613282-43.285157-14.484374-93.777344-4.792968-128.625 24.695313-9.800781 8.292969-16.492188 16.589844-20.449219 25.359375-.703125 1.558594-.34375 3.390625.898438 4.5625 1.242187 1.175781 3.09375 1.433594 4.609374.644531 2.003907-1.046875 4.503907-1.109375 7.035157-.175781 3.324219 1.226562 6.179687 3.9375 7.445312 7.070312 2.269531 5.628907 1.199219 12.980469-2.941406 20.167969-6.460937 11.214844-18.433594 19.304688-31.25 21.113281-12.8125 1.8125-26.558594-2.652343-35.867187-11.640624-1.242188-1.199219-3.117188-1.46875-4.648438-.664063-44.875 23.542969-71.402344 76.625-63.074219 126.214844 8.339844 49.640625 52.046875 91.457031 101.671875 97.269531 4.035156.472656 8.105469.703125 12.191406.703125 20.492188 0 41.378907-5.871094 59.929688-16.996094 22.316406-13.386719 39.402344-33.28125 48.109375-56.019531.40625-1.054688.34375-2.234375-.164063-3.242188-.511718-1.011718-1.421874-1.757812-2.511718-2.058593-9.988282-2.753907-15.113282-14.515625-14.132813-23.835938 1.351563-12.816406 11.085938-22.410156 16.769531-26.988281 8.203126-6.609375 17.097657-10.597656 25.714844-11.539062 9.675782-1.054688 19.105469 1.898437 25.230469 7.898437.785156.769531 1.84375 1.175781 2.949219 1.144531 1.101562-.042968 2.136718-.53125 2.863281-1.355468 18.296875-20.753907 30.738281-42.191407 36.976563-63.714844 7.464843-25.765625 5.980468-51.742188-4.160157-73.210938 2.929688-3.140625 5.957031-6.378906 9.070313-9.710937 32.441406-34.730469 73.390625-78.570313 106.894531-116.378907.660156 1.007813 1.308594 2.042969 1.976563 3.109376 1.007812 1.609374 2.050781 3.277343 3.175781 4.902343 3.425781 4.945313 6.820312 8.230469 10.683593 10.339844 2.976563 1.625 6.167969 2.445313 9.246094 2.445313 2.496094 0 4.921875-.542969 7.089844-1.632813.816406-.410156 1.988281-1.113281 2.746094-2.5.734375-1.335937.703125-2.65625.6875-3.222656-.128906-5.246094-2.226563-10.6875-5.90625-15.324219-2.902344-3.652344-6.785156-6.90625-11.867188-9.945312l-.847656-.5c-1.453125-.855469-2.835938-1.679688-3.863281-2.613282 1.933593-2.230468 3.832031-4.425781 5.691406-6.585937 1.46875 1.515625 2.859375 3.183593 4.292969 4.933593 1.632812 1.988282 3.320312 4.046876 5.230468 5.960938 4.949219 4.949219 10.695313 7.621094 16.078126 7.621094 1.546874 0 3.0625-.222656 4.523437-.675782 2.242187-.695312 4.136719-1.890624 5.476563-3.453124 2.371093-2.769532 3.117187-6.921876 1.957031-10.835938-.980469-3.304688-3.054688-5.925781-4.75-7.839844-4.992188-5.632812-11.214844-10.132812-18.109375-13.136718.894531-1.085938 1.789062-2.167969 2.652344-3.226563.414062-.511719.667968-1.097656.796874-1.703125 2.707032-.351562 5.320313-1.242188 7.605469-2.683594 2.332031 2.292969 5.441407 3.910156 8.820313 4.488282.996094.167968 2.011718.253906 3.035156.253906 3.515625 0 7.144531-.992188 10.46875-2.894532 4.328125-2.476562 7.324219-6.078124 8.433594-10.136718 1.160156-4.238282.257812-9.847656-3.726563-14.671875 4.417969-3.074219 8.023438-8.539063 8.636719-15.953125zm-58.671875 37.128906c1.882813 1.636719 4.046875 2.820312 6.335937 3.59375-9.957031 12.101562-21.988281 26.015625-35.148437 40.84375-7.445313-4.097656-13.5-10.808594-16.777344-18.640625 14.214844-11.726563 27.683594-22.847656 39.824219-32.996094 1.640625 2.894531 3.691406 5.398438 5.765625 7.199219zm-43.285156-18.769531c-2.195313-4.015625-3.234375-7.765625-3.089844-11.140625.074219-1.730469.5625-2.8125 1.015625-3.117188.890625-.605468 3.277344.375 5.558594 2.269532 8.117187 6.757812 14.277344 15.800781 20.160156 24.683593-1.617188 1.34375-3.246094 2.695313-4.898438 4.066407-7.867187-3.242188-14.664062-9.300782-18.746093-16.761719zm-13.03125 24.96875c-3-2.910157-6.023438-6.109375-7.804688-9.757813-1.671875-3.433594-2.019531-7.105468-.949219-9.894531 5.488282 2.433594 9.679688 7.335937 12.730469 11.355469 1.132813 1.492187 2.257813 3.070312 3.347657 4.59375 2.300781 3.214844 4.671874 6.519531 7.4375 9.574218-1.386719 1.144532-2.789063 2.300782-4.191407 3.457032-3.65625-2.933594-7.210937-6.0625-10.570312-9.328125zm-384.738281 338.859375c-3.746094-22.296875.152343-46.460938 10.96875-68.042969 3.683593-7.347656 8.105468-14.234375 13.117187-20.554687 6.984375 2.800781 13.632813 8.3125 20.25 16.800781 8.824219 11.324219 15.378906 24.65625 18.949219 38.554687 2.257812 8.785156 3.164062 17.152344 2.695312 24.871094-1.699218 27.8125-20.90625 50.472656-37.15625 64.847656-14.765625-15.613281-25.261718-35.269531-28.824218-56.476562zm72.089843 4.816406c.492188-.367188.917969-.839844 1.207031-1.429688 7.890626-16.082031 16.445313-32.074218 25.457032-47.585937 11.738281 7.238281 22.1875 16.8125 30.386718 27.871094 0 .003906.003907.003906.007813.007812-.054687.050781-.109375.097657-.175781.152344-24.085938 20.796875-49.542969 40.464844-75.78125 58.589844 8.359375-10.6875 15.542968-23.347657 18.898437-37.605469zm227.894531-104.453125c-5.609374 19.355469-16.605468 38.734375-32.703124 57.652344-7.660157-5.78125-18-8.507813-28.480469-7.367188-10.144531 1.105469-20.476563 5.691407-29.878907 13.265625-11.488281 9.253906-18.488281 20.757813-19.710937 32.394532-1.503906 14.296874 6.339844 26 15.796875 30.78125-8.449219 19.542968-23.679688 36.601562-43.25 48.335937-20.738281 12.441406-44.554688 17.839844-67.058594 15.207031-22.386718-2.621094-43.46875-13.128906-60.152344-28.511718 2.835938-2.523438 5.75-5.285157 8.652344-8.273438.035156.054688.054688.113281.089844.167969.777344 1.152343 2.042969 1.773437 3.332031 1.773437.769531 0 1.546875-.222656 2.234375-.683594 29.621094-19.933593 58.339844-41.871093 85.359375-65.203124 1.023438-.878907 3.144531-2.710938 3.3125-5.675782.140625-2.523437-1.265625-4.421875-1.941406-5.332031-9.644531-13.007813-22.191406-24.105469-36.28125-32.085937-1.90625-1.078126-4.324219-.429688-5.433594 1.457031-6.902343 11.730469-13.539062 23.757812-19.84375 35.902343-.273437-6.222656-1.253906-12.714843-2.972656-19.40625-3.84375-14.957031-10.894531-29.304687-20.390625-41.488281-6.773438-8.6875-13.734375-14.699219-21.140625-18.246093 7.914063-8.628907 17.007813-15.933594 26.917969-21.484376 10.945312 9.320313 26.140625 13.820313 40.359375 11.816407 15.207031-2.148438 29.414062-11.746094 37.078125-25.050781 5.378906-9.339844 6.628906-19.246094 3.425781-27.175782-2.117187-5.242187-6.640625-9.578125-12.105469-11.589844-1.398437-.515624-2.808594-.859374-4.203125-1.03125 3.503907-5.269531 8.304688-10.460937 14.519531-15.71875 31.933594-27.019531 77.835938-36.347656 117.824219-24.179687-21.535156 19.300781-41.339843 37.953125-57.625 54.875-.777343.808594-1.179687 1.90625-1.113281 3.023437.070312 1.121094.605469 2.160157 1.476562 2.867188 15.480469 12.574219 31.257813 25.242188 46.886719 37.652344.738281.582031 1.617188.871094 2.492188.871094 1.082031 0 2.152343-.433594 2.9375-1.28125l41.902343-45.046876c2.332032-2.507812 4.769532-5.125 7.289063-7.828124 7.972656 18.933593 8.878906 42.25 2.398437 64.617187zm6.753907-86.167969c-8.089844 8.65625-15.613281 16.714844-22.316407 23.917969l-39.371093 42.332031c-13.515625-10.742187-27.113281-21.664062-40.519531-32.53125 47.4375-48.628906 122.773437-110.953125 184.527343-161.890625 3.871094 7.988281 10.144531 14.867188 17.742188 19.46875-32.082031 35.921875-69.785157 76.289063-100.0625 108.703125zm125.664062-116.324218.804688.476562c4.238281 2.535156 7.410156 5.164062 9.699219 8.050781 2.308593 2.902344 3.734374 6.171875 4.089843 9.320313-2.320312.707031-5.210937.316406-7.824219-1.113282-2.726562-1.488281-5.25-3.988281-7.933593-7.867187-1.023438-1.472656-1.972657-2.988281-2.976563-4.59375-1.042968-1.667969-2.117187-3.378906-3.289062-5.058594.792968-.902343 1.574218-1.792969 2.359375-2.6875 1.601562 1.425781 3.402343 2.492188 5.070312 3.472657zm32.707031-15.074219c1.148438 1.292969 2.53125 3.007812 3.0625 4.800781.386719 1.296875.242188 2.636719-.363281 3.34375-.347656.40625-.96875.761719-1.753906 1.007812-4.277344 1.324219-9.292969-1.691406-12.554687-4.957031-1.632813-1.636719-3.121094-3.453125-4.699219-5.378906-1.648438-2.011719-3.34375-4.066406-5.261719-5.980469 1.386719-1.632812 2.75-3.242187 4.082031-4.828125 6.699219 2.492188 12.746094 6.640625 17.488281 11.992188zm26.625-65.644531c-.421874 5.113281-3.738281 10.78125-8.558593 11.414062-1.667969.214844-3.019531 1.449219-3.390625 3.085938-.371094 1.640624.316406 3.335937 1.722656 4.25 3.554688 2.308593 6.605469 6.628906 5.570312 10.417968-.539062 1.96875-2.246093 3.898438-4.683593 5.296875-2.679688 1.535157-5.582031 2.132813-8.171875 1.695313-2.574219-.441406-4.878906-2.058594-5.875-4.125-.585938-1.214844-1.742188-2.050782-3.082032-2.230469-.175781-.023437-.355468-.035156-.53125-.035156-1.152343 0-2.257812.496093-3.023437 1.375-3.558594 4.089843-11.039063 4.378906-15.398437.589843-4.175782-3.625-6.902344-9.808593-6.339844-14.386718.257812-2.089844 1.882812-4.074219 3.328125-4.011719 1.519531.0625 2.933593-.722656 3.671875-2.039063.742187-1.316406.683594-2.941406-.15625-4.195312-2.105469-3.144531-3.902344-5.992188-4.613282-8.984375-.925781-3.882813.09375-8.191406 2.660157-11.25 3.546875-4.226563 10.035156-5.855469 15.089843-3.796875 3.597657 1.46875 7.101563 4.761719 6.84375 8.21875-.121093 1.632812.761719 3.179688 2.234376 3.898438 1.472656.71875 3.234374.476562 4.453124-.625 3.988282-3.601563 8.214844-6.832032 12.046876-6.097657 1.929687.371094 3.8125 1.886719 4.914062 3.953125 1.371094 2.574219 1.457031 5.542969 1.289062 7.582032zm0 0"/><path d="m151.554688 297.882812c4.761718-13.488281 10.714843-26.808593 21.953124-32.878906 3.9375-2.125 9.417969-2.875 11.824219-.078125 1.570313 1.828125 1.515625 5.152344-.128906 7.5625-.820313 1.203125-1.9375 2.019531-2.84375 2.082031-.367187.039063-.78125-.214843-.910156-.375-.21875-2.160156-2.117188-3.757812-4.300781-3.59375-2.207032.171876-3.855469 2.097657-3.6875 4.308594.347656 4.492188 4.6875 8.007813 9.464843 7.660156 3.410157-.238281 6.652344-2.269531 8.902344-5.5625 3.707031-5.433593 3.53125-12.714843-.414063-17.308593-5.4375-6.324219-15.066406-5.339844-21.714843-1.75-13.632813 7.363281-20.410157 22.261719-25.703125 37.265625l-.503906 1.425781c-4.519532 12.839844-9.195313 26.113281-19.34375 33.875-5.691407 4.355469-13.058594 6.679687-20.222657 6.371094-4.082031-.171875-7.273437-1.171875-9.484375-2.976563-2.238281-1.820312-3.347656-4.734375-2.632812-6.921875.394531-1.214843 1.34375-2.417969 2.316406-3.539062 1.960938-2.269531 4.972656-4.65625 7.019531-3.921875 1.035157.371094 1.875 1.785156 1.871094 3.152344 0 1.601562-.902344 3.382812-2.414063 4.765624-1.636718 1.492188-1.75 4.027344-.257812 5.664063s4.03125 1.75 5.664062.257813c3.191407-2.917969 5.023438-6.808594 5.027344-10.675782.007813-4.785156-2.945312-9.1875-7.179687-10.707031-5.046875-1.816406-10.808594.449219-15.796875 6.222656-1.449219 1.671875-3.039063 3.726563-3.878906 6.300781-1.75 5.386719.335937 11.664063 5.195312 15.625 3.582031 2.917969 8.363281 4.523438 14.210938 4.769532.550781.023437 1.101562.035156 1.648437.035156 8.570313 0 16.960937-2.828125 23.789063-8.050781 12.046874-9.210938 17.355468-24.285157 22.035156-37.578125zm0 0"/><path d="m250.753906 306.84375c-5.292968-.980469-10.515625.503906-13.976562 3.972656-2.808594 2.820313-4.199219 6.5625-3.722656 10.011719.433593 3.132813 2.511718 5.910156 5.5625 7.4375 3.046874 1.527344 6.519531 1.527344 9.285156 0 1.941406-1.066406 2.644531-3.507813 1.574218-5.445313-1.066406-1.941406-3.507812-2.644531-5.449218-1.574218-.4375.242187-1.152344.183594-1.820313-.148438-.664062-.335937-1.140625-.875-1.210937-1.371094-.132813-.953124.441406-2.226562 1.460937-3.25 1.589844-1.589843 4.140625-2.246093 6.832031-1.746093 2.691407.496093 4.839844 2.023437 5.75 4.082031 1.230469 2.773438.84375 6.476562-1.035156 9.910156-1.941406 3.550782-5.164062 6.523438-8.359375 9.207032-9.652343 8.101562-20.375 14.828124-31.875 19.992187-3.503906 1.570313-7.199219 3.050781-10.769531 4.484375-10.546875 4.226562-21.453125 8.597656-30.363281 16.332031-6.101563 5.300781-9.757813 11.085938-10.863281 17.203125-1.476563 8.1875 2.335937 16.453125 9.070312 19.652344 2.019531.960938 4.238281 1.433594 6.453125 1.433594 3.105469 0 6.207031-.929688 8.773437-2.738282 4.390626-3.101562 6.878907-8.5625 6.328126-13.910156-.382813-3.75-2.199219-6.878906-4.984376-8.59375-3.878906-2.386718-9.085937-1.324218-11.371093 2.316406-1.175781 1.878907-.605469 4.351563 1.269531 5.527344 1.8125 1.136719 4.1875.644532 5.40625-1.085937.144531-.019531.375 0 .496094.070312.601562.371094 1.085937 1.410157 1.207031 2.582031.253906 2.476563-.945313 5.105469-2.976563 6.539063-2.035156 1.4375-4.910156 1.683594-7.160156.613281-3.808594-1.808594-5.339844-7-4.621094-10.980468.773438-4.273438 3.542969-8.503907 8.230469-12.574219 7.890625-6.851563 17.699219-10.78125 28.085938-14.945313 3.648437-1.460937 7.417969-2.972656 11.074219-4.613281 12.171874-5.464844 23.527343-12.585937 33.746093-21.164063 3.796875-3.1875 7.664063-6.785156 10.242188-11.5 3.066406-5.609374 3.5625-11.96875 1.328125-17.007812-1.980469-4.476562-6.324219-7.738281-11.617188-8.71875zm0 0"/></svg>